<svg width="390" height="390" viewBox="0 0 390 390" fill="none" xmlns="http://www.w3.org/2000/svg">
<g clip-path="url(#clip0_2775_1858)">
<g clip-path="url(#clip1_2775_1858)">
<g clip-path="url(#clip2_2775_1858)">
<mask id="mask0_2775_1858" style="mask-type:alpha" maskUnits="userSpaceOnUse" x="0" y="0" width="390" height="390">
<path d="M195 390C302.696 390 390 302.696 390 195C390 87.3045 302.696 0 195 0C87.3045 0 0 87.3045 0 195C0 302.696 87.3045 390 195 390Z" fill="url(#paint0_radial_2775_1858)"/>
</mask>
<g mask="url(#mask0_2775_1858)">
<path opacity="0.5" d="M288.261 -112.981C300.065 -119.795 314.61 -119.795 326.414 -112.981L391.055 -75.66C402.859 -68.8448 410.131 -56.2498 410.131 -42.6193V32.0221C410.131 45.6526 402.859 58.2476 391.055 65.0628L326.414 102.383C314.61 109.198 300.065 109.198 288.261 102.383L223.62 65.0628C211.816 58.2476 204.544 45.6526 204.544 32.0221V-42.6193C204.544 -56.2498 211.816 -68.8448 223.62 -75.66L288.261 -112.981Z" fill="url(#paint1_linear_2775_1858)"/>
<path opacity="0.5" d="M66.7661 269.601C78.5704 262.786 93.114 262.786 104.918 269.601L169.56 306.922C181.364 313.736 188.636 326.332 188.636 339.963V414.603C188.636 428.234 181.364 440.83 169.56 447.644L104.918 484.966C93.114 491.78 78.5704 491.78 66.7661 484.966L2.12486 447.644C-9.67945 440.83 -16.9512 428.234 -16.9512 414.603V339.963C-16.9512 326.332 -9.67945 313.736 2.12487 306.922L66.7661 269.601Z" fill="url(#paint2_linear_2775_1858)"/>
<path opacity="0.1" d="M69.1116 275.749C79.6124 269.679 92.5557 269.679 103.057 275.749L164.948 311.526C175.431 317.587 181.888 328.777 181.888 340.887V412.516C181.888 424.625 175.431 435.817 164.948 441.876L103.057 477.655C92.5559 483.725 79.6124 483.725 69.1116 477.655L7.22076 441.876C-3.26294 435.817 -9.71973 424.625 -9.71973 412.516V340.887C-9.71973 328.777 -3.26295 317.587 7.22074 311.526L69.1116 275.749Z" stroke="#F8F8F8" stroke-width="1.58967"/>
<path opacity="0.1" d="M290.361 275.749C300.862 269.679 313.805 269.679 324.306 275.749L386.196 311.526C396.681 317.587 403.137 328.777 403.137 340.887V412.516C403.137 424.625 396.681 435.817 386.196 441.876L324.306 477.655C313.805 483.725 300.862 483.725 290.361 477.655L228.47 441.876C217.987 435.817 211.529 424.625 211.529 412.516V340.887C211.529 328.777 217.987 317.587 228.47 311.526L290.361 275.749Z" stroke="#F8F8F8" stroke-width="1.58967"/>
<path opacity="0.1" d="M69.1116 -106.388C79.6124 -112.459 92.5557 -112.459 103.057 -106.388L164.948 -70.6106C175.431 -64.5502 181.888 -53.3596 181.888 -41.2502V30.3794C181.888 42.4887 175.431 53.6792 164.948 59.7396L103.057 95.5175C92.5559 101.588 79.6124 101.588 69.1116 95.5175L7.22076 59.7397C-3.26294 53.6793 -9.71973 42.4887 -9.71973 30.3794V-41.2502C-9.71973 -53.3596 -3.26295 -64.5502 7.22074 -70.6106L69.1116 -106.388Z" stroke="#F8F8F8" stroke-width="1.58967"/>
<path opacity="0.1" d="M290.361 -106.388C300.862 -112.459 313.805 -112.459 324.306 -106.388L386.196 -70.6106C396.681 -64.5502 403.137 -53.3596 403.137 -41.2502V30.3794C403.137 42.4887 396.681 53.6792 386.196 59.7396L324.306 95.5175C313.805 101.588 300.862 101.588 290.361 95.5175L228.47 59.7397C217.987 53.6793 211.529 42.4887 211.529 30.3794V-41.2502C211.529 -53.3596 217.987 -64.5502 228.47 -70.6106L290.361 -106.388Z" stroke="#F8F8F8" stroke-width="1.58967"/>
<path opacity="0.1" d="M-44.2786 81.911C-33.7777 75.8406 -20.8343 75.8406 -10.3334 81.9109L51.5573 117.689C62.041 123.749 68.4978 134.94 68.4978 147.049V218.679C68.4978 230.788 62.0411 241.978 51.5574 248.039L-10.3334 283.816C-20.8343 289.887 -33.7777 289.887 -44.2786 283.816L-106.17 248.039C-116.653 241.978 -123.11 230.788 -123.11 218.679V147.049C-123.11 134.94 -116.653 123.749 -106.17 117.689L-44.2786 81.911Z" stroke="#F8F8F8" stroke-width="1.58967"/>
<path opacity="0.1" d="M398.221 81.911C408.722 75.8406 421.666 75.8406 432.166 81.9109L494.058 117.689C504.541 123.749 510.998 134.94 510.998 147.049V218.679C510.998 230.788 504.541 241.978 494.058 248.039L432.166 283.816C421.666 289.887 408.722 289.887 398.221 283.816L336.33 248.039C325.847 241.978 319.391 230.788 319.391 218.679V147.049C319.391 134.94 325.847 123.749 336.33 117.689L398.221 81.911Z" stroke="#F8F8F8" stroke-width="1.58967"/>
<path d="M182.813 227.853C183.106 227.853 183.343 227.616 183.343 227.324C183.343 227.031 183.106 226.794 182.813 226.794C182.52 226.794 182.283 227.031 182.283 227.324C182.283 227.616 182.52 227.853 182.813 227.853Z" fill="white" fill-opacity="0.4"/>
<path d="M120.286 281.902C120.578 281.902 120.816 281.665 120.816 281.372C120.816 281.08 120.578 280.843 120.286 280.843C119.993 280.843 119.756 281.08 119.756 281.372C119.756 281.665 119.993 281.902 120.286 281.902Z" fill="white" fill-opacity="0.6"/>
<path d="M241.215 192.048C241.57 192.048 241.858 191.76 241.858 191.404C241.858 191.049 241.57 190.761 241.215 190.761C240.859 190.761 240.571 191.049 240.571 191.404C240.571 191.76 240.859 192.048 241.215 192.048Z" fill="white" fill-opacity="0.4"/>
<path d="M88.4928 21.1958C88.7854 21.1958 89.0227 20.9585 89.0227 20.6659C89.0227 20.3732 88.7854 20.136 88.4928 20.136C88.2001 20.136 87.9629 20.3732 87.9629 20.6659C87.9629 20.9585 88.2001 21.1958 88.4928 21.1958Z" fill="white" fill-opacity="0.4"/>
<path d="M255.938 309.457C256.231 309.457 256.468 309.22 256.468 308.927C256.468 308.634 256.231 308.397 255.938 308.397C255.645 308.397 255.408 308.634 255.408 308.927C255.408 309.22 255.645 309.457 255.938 309.457Z" fill="white" fill-opacity="0.3"/>
<path d="M59.9933 322.405C60.3498 322.405 60.6389 322.116 60.6389 321.76C60.6389 321.403 60.3498 321.114 59.9933 321.114C59.6367 321.114 59.3477 321.403 59.3477 321.76C59.3477 322.116 59.6367 322.405 59.9933 322.405Z" fill="white" fill-opacity="0.6"/>
<path d="M322.705 326.413C322.997 326.413 323.235 326.176 323.235 325.883C323.235 325.591 322.997 325.353 322.705 325.353C322.412 325.353 322.175 325.591 322.175 325.883C322.175 326.176 322.412 326.413 322.705 326.413Z" fill="white" fill-opacity="0.5"/>
<path d="M253.022 219.901C253.46 219.901 253.814 219.546 253.814 219.108C253.814 218.671 253.46 218.316 253.022 218.316C252.584 218.316 252.229 218.671 252.229 219.108C252.229 219.546 252.584 219.901 253.022 219.901Z" fill="white" fill-opacity="0.4"/>
<path d="M307.868 97.5002C308.16 97.5002 308.398 97.263 308.398 96.9703C308.398 96.6777 308.16 96.4404 307.868 96.4404C307.575 96.4404 307.338 96.6777 307.338 96.9703C307.338 97.263 307.575 97.5002 307.868 97.5002Z" fill="white" fill-opacity="0.6"/>
<path d="M147.839 96.4404C148.132 96.4404 148.369 96.2032 148.369 95.9105C148.369 95.6179 148.132 95.3806 147.839 95.3806C147.547 95.3806 147.31 95.6179 147.31 95.9105C147.31 96.2032 147.547 96.4404 147.839 96.4404Z" fill="white" fill-opacity="0.5"/>
<path d="M263.401 152.698C263.718 152.698 263.975 152.441 263.975 152.123C263.975 151.806 263.718 151.549 263.401 151.549C263.083 151.549 262.826 151.806 262.826 152.123C262.826 152.441 263.083 152.698 263.401 152.698Z" fill="white" fill-opacity="0.4"/>
<path d="M71.6617 223.867C72.0239 223.867 72.3175 223.573 72.3175 223.211C72.3175 222.849 72.0239 222.555 71.6617 222.555C71.2995 222.555 71.0059 222.849 71.0059 223.211C71.0059 223.573 71.2995 223.867 71.6617 223.867Z" fill="white" fill-opacity="0.4"/>
<path d="M118.167 40.2717C118.459 40.2717 118.697 40.0345 118.697 39.7418C118.697 39.4492 118.459 39.2119 118.167 39.2119C117.874 39.2119 117.637 39.4492 117.637 39.7418C117.637 40.0345 117.874 40.2717 118.167 40.2717Z" fill="white" fill-opacity="0.4"/>
<path d="M160.557 82.6631C160.85 82.6631 161.087 82.4258 161.087 82.1332C161.087 81.8405 160.85 81.6033 160.557 81.6033C160.265 81.6033 160.027 81.8405 160.027 82.1332C160.027 82.4258 160.265 82.6631 160.557 82.6631Z" fill="white" fill-opacity="0.4"/>
<path d="M173.275 237.391C173.568 237.391 173.805 237.154 173.805 236.861C173.805 236.569 173.568 236.332 173.275 236.332C172.982 236.332 172.745 236.569 172.745 236.861C172.745 237.154 172.982 237.391 173.275 237.391Z" fill="white" fill-opacity="0.5"/>
<path d="M211.427 353.967C211.72 353.967 211.957 353.73 211.957 353.438C211.957 353.145 211.72 352.908 211.427 352.908C211.135 352.908 210.897 353.145 210.897 353.438C210.897 353.73 211.135 353.967 211.427 353.967Z" fill="white" fill-opacity="0.6"/>
<path d="M56.7403 168.589C57.0559 168.589 57.3117 168.333 57.3117 168.017C57.3117 167.702 57.0559 167.446 56.7403 167.446C56.4248 167.446 56.1689 167.702 56.1689 168.017C56.1689 168.333 56.4248 168.589 56.7403 168.589Z" fill="white" fill-opacity="0.3"/>
<path d="M2.65001 121.875C2.94266 121.875 3.1799 121.638 3.1799 121.345C3.1799 121.053 2.94266 120.815 2.65001 120.815C2.35736 120.815 2.12012 121.053 2.12012 121.345C2.12012 121.638 2.35736 121.875 2.65001 121.875Z" fill="white" fill-opacity="0.4"/>
<path d="M304.688 363.506C304.981 363.506 305.218 363.268 305.218 362.976C305.218 362.683 304.981 362.446 304.688 362.446C304.395 362.446 304.158 362.683 304.158 362.976C304.158 363.268 304.395 363.506 304.688 363.506Z" fill="white" fill-opacity="0.6"/>
<path d="M373.611 172.819C373.924 172.819 374.178 172.565 374.178 172.252C374.178 171.939 373.924 171.685 373.611 171.685C373.298 171.685 373.044 171.939 373.044 172.252C373.044 172.565 373.298 172.819 373.611 172.819Z" fill="white" fill-opacity="0.5"/>
<path d="M206.128 130.353C206.42 130.353 206.657 130.116 206.657 129.824C206.657 129.531 206.42 129.294 206.128 129.294C205.835 129.294 205.598 129.531 205.598 129.824C205.598 130.116 205.835 130.353 206.128 130.353Z" fill="white" fill-opacity="0.6"/>
<path d="M141.529 270.34C141.847 270.34 142.106 270.082 142.106 269.763C142.106 269.444 141.847 269.186 141.529 269.186C141.21 269.186 140.951 269.444 140.951 269.763C140.951 270.082 141.21 270.34 141.529 270.34Z" fill="white" fill-opacity="0.4"/>
<path d="M50.5841 386.25C51.0119 386.25 51.3587 385.904 51.3587 385.476C51.3587 385.048 51.0119 384.701 50.5841 384.701C50.1563 384.701 49.8096 385.048 49.8096 385.476C49.8096 385.904 50.1563 386.25 50.5841 386.25Z" fill="white" fill-opacity="0.5"/>
<path d="M111.807 386.821C112.1 386.821 112.337 386.584 112.337 386.291C112.337 385.998 112.1 385.761 111.807 385.761C111.515 385.761 111.277 385.998 111.277 386.291C111.277 386.584 111.515 386.821 111.807 386.821Z" fill="white" fill-opacity="0.4"/>
<path d="M78.9547 85.8425C79.2473 85.8425 79.4846 85.6053 79.4846 85.3126C79.4846 85.02 79.2473 84.7827 78.9547 84.7827C78.662 84.7827 78.4248 85.02 78.4248 85.3126C78.4248 85.6053 78.662 85.8425 78.9547 85.8425Z" fill="white" fill-opacity="0.5"/>
<path d="M162.677 373.044C162.97 373.044 163.207 372.806 163.207 372.514C163.207 372.221 162.97 371.984 162.677 371.984C162.385 371.984 162.147 372.221 162.147 372.514C162.147 372.806 162.385 373.044 162.677 373.044Z" fill="white" fill-opacity="0.6"/>
<path d="M381.044 347.712C381.365 347.712 381.626 347.452 381.626 347.131C381.626 346.81 381.365 346.55 381.044 346.55C380.723 346.55 380.463 346.81 380.463 347.131C380.463 347.452 380.723 347.712 381.044 347.712Z" fill="white" fill-opacity="0.3"/>
<path d="M193.411 195C193.703 195 193.941 194.763 193.941 194.47C193.941 194.178 193.703 193.94 193.411 193.94C193.118 193.94 192.881 194.178 192.881 194.47C192.881 194.763 193.118 195 193.411 195Z" fill="white" fill-opacity="0.5"/>
<path d="M29.1441 14.8371C29.4368 14.8371 29.674 14.5999 29.674 14.3072C29.674 14.0146 29.4368 13.7773 29.1441 13.7773C28.8515 13.7773 28.6143 14.0146 28.6143 14.3072C28.6143 14.5999 28.8515 14.8371 29.1441 14.8371Z" fill="white" fill-opacity="0.5"/>
<path d="M348.309 261.046C348.696 261.046 349.009 260.733 349.009 260.346C349.009 259.96 348.696 259.646 348.309 259.646C347.923 259.646 347.609 259.96 347.609 260.346C347.609 260.733 347.923 261.046 348.309 261.046Z" fill="white" fill-opacity="0.6"/>
<path d="M192.492 337.293C192.863 337.293 193.164 336.993 193.164 336.622C193.164 336.252 192.863 335.951 192.492 335.951C192.122 335.951 191.821 336.252 191.821 336.622C191.821 336.993 192.122 337.293 192.492 337.293Z" fill="white" fill-opacity="0.4"/>
<path d="M9.18508 244.104C9.5753 244.104 9.89164 243.788 9.89164 243.397C9.89164 243.007 9.5753 242.691 9.18508 242.691C8.79485 242.691 8.47852 243.007 8.47852 243.397C8.47852 243.788 8.79485 244.104 9.18508 244.104Z" fill="white" fill-opacity="0.6"/>
<path d="M60.9381 163.207C61.2307 163.207 61.468 162.97 61.468 162.677C61.468 162.384 61.2307 162.147 60.9381 162.147C60.6454 162.147 60.4082 162.384 60.4082 162.677C60.4082 162.97 60.6454 163.207 60.9381 163.207Z" fill="white" fill-opacity="0.5"/>
<path d="M334.47 130.57C334.822 130.57 335.108 130.284 335.108 129.932C335.108 129.58 334.822 129.294 334.47 129.294C334.118 129.294 333.832 129.58 333.832 129.932C333.832 130.284 334.118 130.57 334.47 130.57Z" fill="white" fill-opacity="0.5"/>
<path d="M358.737 324.294C359.03 324.294 359.267 324.056 359.267 323.764C359.267 323.471 359.03 323.234 358.737 323.234C358.444 323.234 358.207 323.471 358.207 323.764C358.207 324.056 358.444 324.294 358.737 324.294Z" fill="white" fill-opacity="0.4"/>
<path d="M19.6061 167.446C19.8987 167.446 20.136 167.209 20.136 166.916C20.136 166.623 19.8987 166.386 19.6061 166.386C19.3134 166.386 19.0762 166.623 19.0762 166.916C19.0762 167.209 19.3134 167.446 19.6061 167.446Z" fill="white" fill-opacity="0.5"/>
<path d="M316.346 307.337C316.639 307.337 316.876 307.1 316.876 306.807C316.876 306.515 316.639 306.277 316.346 306.277C316.054 306.277 315.816 306.515 315.816 306.807C315.816 307.1 316.054 307.337 316.346 307.337Z" fill="white" fill-opacity="0.5"/>
<path d="M365.096 100.68C365.389 100.68 365.626 100.442 365.626 100.15C365.626 99.8571 365.389 99.6199 365.096 99.6199C364.804 99.6199 364.566 99.8571 364.566 100.15C364.566 100.442 364.804 100.68 365.096 100.68Z" fill="white" fill-opacity="0.5"/>
<path d="M235.802 200.299C236.095 200.299 236.332 200.062 236.332 199.769C236.332 199.476 236.095 199.239 235.802 199.239C235.51 199.239 235.272 199.476 235.272 199.769C235.272 200.062 235.51 200.299 235.802 200.299Z" fill="white" fill-opacity="0.5"/>
<path d="M297.269 318.995C297.562 318.995 297.799 318.757 297.799 318.465C297.799 318.172 297.562 317.935 297.269 317.935C296.976 317.935 296.739 318.172 296.739 318.465C296.739 318.757 296.976 318.995 297.269 318.995Z" fill="white" fill-opacity="0.3"/>
<path d="M134.063 311.576C134.356 311.576 134.593 311.339 134.593 311.046C134.593 310.754 134.356 310.517 134.063 310.517C133.77 310.517 133.533 310.754 133.533 311.046C133.533 311.339 133.77 311.576 134.063 311.576Z" fill="white" fill-opacity="0.4"/>
<path d="M68.562 367.097C68.9683 367.097 69.2978 366.767 69.2978 366.361C69.2978 365.955 68.9683 365.625 68.562 365.625C68.1556 365.625 67.8262 365.955 67.8262 366.361C67.8262 366.767 68.1556 367.097 68.562 367.097Z" fill="white" fill-opacity="0.5"/>
<path d="M104.389 85.8425C104.682 85.8425 104.919 85.6053 104.919 85.3126C104.919 85.02 104.682 84.7827 104.389 84.7827C104.097 84.7827 103.859 85.02 103.859 85.3126C103.859 85.6053 104.097 85.8425 104.389 85.8425Z" fill="white" fill-opacity="0.5"/>
<path d="M17.4869 13.7773C17.7796 13.7773 18.0168 13.5401 18.0168 13.2474C18.0168 12.9548 17.7796 12.7175 17.4869 12.7175C17.1943 12.7175 16.957 12.9548 16.957 13.2474C16.957 13.5401 17.1943 13.7773 17.4869 13.7773Z" fill="white" fill-opacity="0.5"/>
<path d="M295.15 182.283C295.443 182.283 295.68 182.045 295.68 181.753C295.68 181.46 295.443 181.223 295.15 181.223C294.857 181.223 294.62 181.46 294.62 181.753C294.62 182.045 294.857 182.283 295.15 182.283Z" fill="white" fill-opacity="0.4"/>
<path d="M96.9742 294.626C97.2685 294.626 97.507 294.388 97.507 294.093C97.507 293.799 97.2685 293.561 96.9742 293.561C96.68 293.561 96.4414 293.799 96.4414 294.093C96.4414 294.388 96.68 294.626 96.9742 294.626Z" fill="white" fill-opacity="0.5"/>
<path d="M369.469 384.97C369.836 384.97 370.133 384.673 370.133 384.306C370.133 383.939 369.836 383.642 369.469 383.642C369.102 383.642 368.805 383.939 368.805 384.306C368.805 384.673 369.102 384.97 369.469 384.97Z" fill="white" fill-opacity="0.3"/>
<path d="M317.405 85.8425C317.698 85.8425 317.935 85.6053 317.935 85.3126C317.935 85.02 317.698 84.7827 317.405 84.7827C317.112 84.7827 316.875 85.02 316.875 85.3126C316.875 85.6053 317.112 85.8425 317.405 85.8425Z" fill="white" fill-opacity="0.3"/>
<path d="M237.923 79.4873C238.217 79.4873 238.455 79.2493 238.455 78.9557C238.455 78.6621 238.217 78.4241 237.923 78.4241C237.63 78.4241 237.392 78.6621 237.392 78.9557C237.392 79.2493 237.63 79.4873 237.923 79.4873Z" fill="white" fill-opacity="0.6"/>
<path d="M144.787 115.769C145.15 115.769 145.444 115.475 145.444 115.112C145.444 114.75 145.15 114.456 144.787 114.456C144.425 114.456 144.131 114.75 144.131 115.112C144.131 115.475 144.425 115.769 144.787 115.769Z" fill="white" fill-opacity="0.4"/>
<path d="M93.7916 293.56C94.0843 293.56 94.3215 293.323 94.3215 293.03C94.3215 292.737 94.0843 292.5 93.7916 292.5C93.499 292.5 93.2617 292.737 93.2617 293.03C93.2617 293.323 93.499 293.56 93.7916 293.56Z" fill="white" fill-opacity="0.3"/>
<path d="M314.226 201.359C314.519 201.359 314.756 201.122 314.756 200.829C314.756 200.536 314.519 200.299 314.226 200.299C313.934 200.299 313.696 200.536 313.696 200.829C313.696 201.122 313.934 201.359 314.226 201.359Z" fill="white" fill-opacity="0.4"/>
<path d="M24.9059 345.489C25.1985 345.489 25.4358 345.252 25.4358 344.959C25.4358 344.667 25.1985 344.429 24.9059 344.429C24.6132 344.429 24.376 344.667 24.376 344.959C24.376 345.252 24.6132 345.489 24.9059 345.489Z" fill="white" fill-opacity="0.6"/>
<path d="M57.7584 200.299C58.0511 200.299 58.2883 200.062 58.2883 199.769C58.2883 199.476 58.0511 199.239 57.7584 199.239C57.4658 199.239 57.2285 199.476 57.2285 199.769C57.2285 200.062 57.4658 200.299 57.7584 200.299Z" fill="white" fill-opacity="0.5"/>
<path d="M159.517 0.03988C159.821 0.03988 160.067 -0.20624 160.067 -0.509845C160.067 -0.81345 159.821 -1.05957 159.517 -1.05957C159.214 -1.05957 158.968 -0.81345 158.968 -0.509845C158.968 -0.20624 159.214 0.03988 159.517 0.03988Z" fill="white" fill-opacity="0.4"/>
<path d="M163.767 366.745C164.076 366.745 164.327 366.494 164.327 366.185C164.327 365.876 164.076 365.625 163.767 365.625C163.458 365.625 163.207 365.876 163.207 366.185C163.207 366.494 163.458 366.745 163.767 366.745Z" fill="white" fill-opacity="0.6"/>
<path d="M343.9 379.402C344.193 379.402 344.43 379.165 344.43 378.872C344.43 378.58 344.193 378.343 343.9 378.343C343.607 378.343 343.37 378.58 343.37 378.872C343.37 379.165 343.607 379.402 343.9 379.402Z" fill="white" fill-opacity="0.4"/>
<path d="M71.5358 191.821C71.8284 191.821 72.0656 191.584 72.0656 191.291C72.0656 190.998 71.8284 190.761 71.5358 190.761C71.2431 190.761 71.0059 190.998 71.0059 191.291C71.0059 191.584 71.2431 191.821 71.5358 191.821Z" fill="white" fill-opacity="0.5"/>
<path d="M204.009 165.326C204.302 165.326 204.539 165.089 204.539 164.796C204.539 164.504 204.302 164.267 204.009 164.267C203.717 164.267 203.479 164.504 203.479 164.796C203.479 165.089 203.717 165.326 204.009 165.326Z" fill="white" fill-opacity="0.6"/>
<path d="M244.281 132.473C244.574 132.473 244.811 132.236 244.811 131.943C244.811 131.65 244.574 131.413 244.281 131.413C243.988 131.413 243.751 131.65 243.751 131.943C243.751 132.236 243.988 132.473 244.281 132.473Z" fill="white" fill-opacity="0.5"/>
<path d="M237.921 197.12C238.214 197.12 238.451 196.882 238.451 196.59C238.451 196.297 238.214 196.06 237.921 196.06C237.629 196.06 237.392 196.297 237.392 196.59C237.392 196.882 237.629 197.12 237.921 197.12Z" fill="white" fill-opacity="0.3"/>
<path d="M184.932 388.94C185.225 388.94 185.462 388.703 185.462 388.411C185.462 388.118 185.225 387.881 184.932 387.881C184.64 387.881 184.402 388.118 184.402 388.411C184.402 388.703 184.64 388.94 184.932 388.94Z" fill="white" fill-opacity="0.3"/>
<path d="M282.432 5.29904C282.725 5.29904 282.962 5.0618 282.962 4.76915C282.962 4.4765 282.725 4.23926 282.432 4.23926C282.14 4.23926 281.902 4.4765 281.902 4.76915C281.902 5.0618 282.14 5.29904 282.432 5.29904Z" fill="white" fill-opacity="0.4"/>
<path d="M243.221 149.43C243.514 149.43 243.751 149.192 243.751 148.9C243.751 148.607 243.514 148.37 243.221 148.37C242.929 148.37 242.691 148.607 242.691 148.9C242.691 149.192 242.929 149.43 243.221 149.43Z" fill="white" fill-opacity="0.5"/>
<path d="M376.753 205.598C377.045 205.598 377.282 205.361 377.282 205.068C377.282 204.775 377.045 204.538 376.753 204.538C376.46 204.538 376.223 204.775 376.223 205.068C376.223 205.361 376.46 205.598 376.753 205.598Z" fill="white" fill-opacity="0.4"/>
<path d="M51.4 7.41867C51.6927 7.41867 51.9299 7.18143 51.9299 6.88878C51.9299 6.59613 51.6927 6.35889 51.4 6.35889C51.1074 6.35889 50.8701 6.59613 50.8701 6.88878C50.8701 7.18143 51.1074 7.41867 51.4 7.41867Z" fill="white" fill-opacity="0.4"/>
<path d="M323.764 242.69C324.057 242.69 324.294 242.453 324.294 242.161C324.294 241.868 324.057 241.631 323.764 241.631C323.472 241.631 323.234 241.868 323.234 242.161C323.234 242.453 323.472 242.69 323.764 242.69Z" fill="white" fill-opacity="0.4"/>
<path d="M243.373 43.7547C243.749 43.7547 244.055 43.4496 244.055 43.0732C244.055 42.6968 243.749 42.3916 243.373 42.3916C242.997 42.3916 242.691 42.6968 242.691 43.0732C242.691 43.4496 242.997 43.7547 243.373 43.7547Z" fill="white" fill-opacity="0.4"/>
<path d="M169.036 48.7502C169.328 48.7502 169.566 48.513 169.566 48.2203C169.566 47.9277 169.328 47.6904 169.036 47.6904C168.743 47.6904 168.506 47.9277 168.506 48.2203C168.506 48.513 168.743 48.7502 169.036 48.7502Z" fill="white" fill-opacity="0.4"/>
<path d="M250.639 366.685C250.932 366.685 251.169 366.448 251.169 366.155C251.169 365.862 250.932 365.625 250.639 365.625C250.347 365.625 250.109 365.862 250.109 366.155C250.109 366.448 250.347 366.685 250.639 366.685Z" fill="white" fill-opacity="0.6"/>
<path d="M105.607 232.408C105.986 232.408 106.294 232.1 106.294 231.72C106.294 231.341 105.986 231.033 105.607 231.033C105.227 231.033 104.919 231.341 104.919 231.72C104.919 232.1 105.227 232.408 105.607 232.408Z" fill="white" fill-opacity="0.4"/>
<path d="M245.339 243.75C245.632 243.75 245.869 243.513 245.869 243.22C245.869 242.928 245.632 242.69 245.339 242.69C245.047 242.69 244.81 242.928 244.81 243.22C244.81 243.513 245.047 243.75 245.339 243.75Z" fill="white" fill-opacity="0.4"/>
<path d="M356.882 59.8761C357.32 59.8761 357.676 59.5206 357.676 59.0821C357.676 58.6436 357.32 58.2881 356.882 58.2881C356.443 58.2881 356.088 58.6436 356.088 59.0821C356.088 59.5206 356.443 59.8761 356.882 59.8761Z" fill="white" fill-opacity="0.5"/>
<path d="M259.273 116.888C259.652 116.888 259.959 116.581 259.959 116.202C259.959 115.824 259.652 115.517 259.273 115.517C258.895 115.517 258.588 115.824 258.588 116.202C258.588 116.581 258.895 116.888 259.273 116.888Z" fill="white" fill-opacity="0.4"/>
<path d="M55.6393 224.674C55.9319 224.674 56.1692 224.437 56.1692 224.144C56.1692 223.851 55.9319 223.614 55.6393 223.614C55.3466 223.614 55.1094 223.851 55.1094 224.144C55.1094 224.437 55.3466 224.674 55.6393 224.674Z" fill="white" fill-opacity="0.3"/>
<path d="M373.574 379.402C373.866 379.402 374.104 379.165 374.104 378.872C374.104 378.58 373.866 378.343 373.574 378.343C373.281 378.343 373.044 378.58 373.044 378.872C373.044 379.165 373.281 379.402 373.574 379.402Z" fill="white" fill-opacity="0.3"/>
<path d="M87.4322 384.701C87.7249 384.701 87.9621 384.464 87.9621 384.171C87.9621 383.879 87.7249 383.642 87.4322 383.642C87.1396 383.642 86.9023 383.879 86.9023 384.171C86.9023 384.464 87.1396 384.701 87.4322 384.701Z" fill="white" fill-opacity="0.6"/>
<path d="M169.036 346.549C169.328 346.549 169.566 346.312 169.566 346.019C169.566 345.726 169.328 345.489 169.036 345.489C168.743 345.489 168.506 345.726 168.506 346.019C168.506 346.312 168.743 346.549 169.036 346.549Z" fill="white" fill-opacity="0.6"/>
<path d="M337.73 130.731C338.127 130.731 338.449 130.409 338.449 130.012C338.449 129.616 338.127 129.294 337.73 129.294C337.334 129.294 337.012 129.616 337.012 130.012C337.012 130.409 337.334 130.731 337.73 130.731Z" fill="white" fill-opacity="0.3"/>
<path d="M249.599 79.522C249.902 79.522 250.148 79.2762 250.148 78.9731C250.148 78.6699 249.902 78.4241 249.599 78.4241C249.296 78.4241 249.05 78.6699 249.05 78.9731C249.05 79.2762 249.296 79.522 249.599 79.522Z" fill="white" fill-opacity="0.5"/>
<path d="M223.085 255.408C223.377 255.408 223.614 255.17 223.614 254.878C223.614 254.585 223.377 254.348 223.085 254.348C222.792 254.348 222.555 254.585 222.555 254.878C222.555 255.17 222.792 255.408 223.085 255.408Z" fill="white" fill-opacity="0.5"/>
<path d="M60.9381 295.68C61.2307 295.68 61.468 295.442 61.468 295.15C61.468 294.857 61.2307 294.62 60.9381 294.62C60.6454 294.62 60.4082 294.857 60.4082 295.15C60.4082 295.442 60.6454 295.68 60.9381 295.68Z" fill="white" fill-opacity="0.6"/>
<path d="M351.318 222.555C351.611 222.555 351.848 222.317 351.848 222.025C351.848 221.732 351.611 221.495 351.318 221.495C351.025 221.495 350.788 221.732 350.788 222.025C350.788 222.317 351.025 222.555 351.318 222.555Z" fill="white" fill-opacity="0.5"/>
<path d="M10.068 367.745C10.3606 367.745 10.5979 367.507 10.5979 367.215C10.5979 366.922 10.3606 366.685 10.068 366.685C9.77533 366.685 9.53809 366.922 9.53809 367.215C9.53809 367.507 9.77533 367.745 10.068 367.745Z" fill="white" fill-opacity="0.5"/>
<path d="M72.5963 346.549C72.8889 346.549 73.1262 346.312 73.1262 346.019C73.1262 345.726 72.8889 345.489 72.5963 345.489C72.3036 345.489 72.0664 345.726 72.0664 346.019C72.0664 346.312 72.3036 346.549 72.5963 346.549Z" fill="white" fill-opacity="0.5"/>
<path d="M80.0143 86.9023C80.3069 86.9023 80.5442 86.6651 80.5442 86.3724C80.5442 86.0798 80.3069 85.8425 80.0143 85.8425C79.7216 85.8425 79.4844 86.0798 79.4844 86.3724C79.4844 86.6651 79.7216 86.9023 80.0143 86.9023Z" fill="white" fill-opacity="0.4"/>
</g>
<path opacity="0.1" d="M195 0V86.9022" stroke="url(#paint3_linear_2775_1858)" stroke-width="1.58967"/>
<path opacity="0.1" d="M195 303.098V390" stroke="url(#paint4_linear_2775_1858)" stroke-width="1.58967"/>
</g>
</g>
</g>
<g filter="url(#filter0_b_2775_1858)">
<rect x="133.533" y="116.576" width="122.935" height="156.848" rx="12.7174" fill="#F7F7F7" fill-opacity="0.02"/>
</g>
<g filter="url(#filter1_bdi_2775_1858)">
<rect x="188.642" y="83.7229" width="12.7174" height="12.7174" rx="6.3587" fill="#121212" fill-opacity="0.3" shape-rendering="crispEdges"/>
</g>
<mask id="mask1_2775_1858" style="mask-type:alpha" maskUnits="userSpaceOnUse" x="188" y="83" width="14" height="14">
<rect x="188.642" y="83.7229" width="12.7174" height="12.7174" fill="url(#paint5_linear_2775_1858)"/>
</mask>
<g mask="url(#mask1_2775_1858)">
<rect x="189.171" y="84.2528" width="11.6576" height="11.6576" rx="5.8288" stroke="white" stroke-opacity="0.1" stroke-width="1.05978"/>
</g>
<rect x="191.82" y="86.9023" width="6.3587" height="6.3587" rx="3.17935" fill="#F8F8F8"/>
<g filter="url(#filter2_bdi_2775_1858)">
<rect x="188.642" y="293.56" width="12.7174" height="12.7174" rx="6.3587" fill="#121212" fill-opacity="0.3" shape-rendering="crispEdges"/>
</g>
<mask id="mask2_2775_1858" style="mask-type:alpha" maskUnits="userSpaceOnUse" x="188" y="293" width="14" height="14">
<rect x="188.642" y="293.56" width="12.7174" height="12.7174" fill="url(#paint6_linear_2775_1858)"/>
</mask>
<g mask="url(#mask2_2775_1858)">
<rect x="189.171" y="294.09" width="11.6576" height="11.6576" rx="5.8288" stroke="white" stroke-opacity="0.1" stroke-width="1.05978"/>
</g>
<rect x="191.82" y="296.739" width="6.3587" height="6.3587" rx="3.17935" fill="#F8F8F8"/>
<g filter="url(#filter3_bi_2775_1858)">
<rect x="127.174" y="140.421" width="135.652" height="109.158" rx="19.0761" fill="#282828" fill-opacity="0.7"/>
</g>
<g filter="url(#filter4_bd_2775_1858)">
<rect x="133.533" y="146.78" width="122.935" height="80.5435" rx="12.7174" fill="#F7F7F7" fill-opacity="0.05" shape-rendering="crispEdges"/>
</g>
<rect x="207.718" y="170.095" width="29.6739" height="4.23913" rx="1.05978" fill="#F7F7F7" fill-opacity="0.5"/>
<rect x="182.283" y="176.454" width="55.1087" height="4.23913" rx="1.05978" fill="#F7F7F7" fill-opacity="0.1"/>
<rect x="207.718" y="182.812" width="29.6739" height="4.23913" rx="1.05978" fill="#F7F7F7" fill-opacity="0.1"/>
<mask id="mask3_2775_1858" style="mask-type:alpha" maskUnits="userSpaceOnUse" x="133" y="146" width="124" height="82">
<rect x="133.533" y="146.78" width="122.935" height="80.5435" fill="url(#paint7_linear_2775_1858)"/>
</mask>
<g mask="url(#mask3_2775_1858)">
<rect x="134.063" y="147.31" width="121.875" height="79.4837" rx="12.1875" stroke="white" stroke-opacity="0.1" stroke-width="1.05978"/>
</g>
<g filter="url(#filter5_bi_2775_1858)">
<rect x="116.576" y="232.622" width="156.848" height="16.9565" rx="8.47826" fill="#282828" fill-opacity="0.7"/>
</g>
<mask id="mask4_2775_1858" style="mask-type:alpha" maskUnits="userSpaceOnUse" x="116" y="232" width="158" height="18">
<rect x="116.576" y="232.622" width="156.848" height="16.9565" fill="url(#paint8_linear_2775_1858)"/>
</mask>
<g mask="url(#mask4_2775_1858)">
<rect x="117.106" y="233.152" width="155.788" height="15.8967" rx="7.94837" stroke="white" stroke-opacity="0.1" stroke-width="1.05978"/>
</g>
<mask id="mask5_2775_1858" style="mask-type:alpha" maskUnits="userSpaceOnUse" x="127" y="140" width="136" height="110">
<rect x="127.174" y="140.421" width="135.652" height="109.158" fill="url(#paint9_linear_2775_1858)"/>
</mask>
<g mask="url(#mask5_2775_1858)">
<rect x="127.704" y="140.951" width="134.592" height="108.098" rx="18.5462" stroke="white" stroke-opacity="0.1" stroke-width="1.05978"/>
</g>
<g clip-path="url(#clip3_2775_1858)">
<g clip-path="url(#clip4_2775_1858)">
<g clip-path="url(#clip5_2775_1858)">
<path fill-rule="evenodd" clip-rule="evenodd" d="M130.096 212.486C144.143 212.486 155.53 201.099 155.53 187.051C155.53 173.004 144.143 161.617 130.096 161.617C116.048 161.617 104.661 173.004 104.661 187.051C104.661 192.995 106.699 198.462 110.115 202.792L96.3111 216.565C95.0695 217.807 95.0695 219.82 96.3111 221.062C97.5527 222.303 99.5658 222.303 100.807 221.062L114.644 207.256C118.927 210.537 124.284 212.486 130.096 212.486ZM149.172 187.051C149.172 197.587 140.631 206.128 130.096 206.128C119.56 206.128 111.02 197.587 111.02 187.051C111.02 176.516 119.56 167.975 130.096 167.975C140.631 167.975 149.172 176.516 149.172 187.051Z" fill="#F8F8F8" fill-opacity="0.25"/>
</g>
</g>
</g>
<g filter="url(#filter6_i_2775_1858)">
<rect x="113.396" y="170.095" width="33.913" height="33.913" rx="16.9565" fill="#282828" fill-opacity="0.9"/>
</g>
<mask id="mask6_2775_1858" style="mask-type:alpha" maskUnits="userSpaceOnUse" x="113" y="170" width="35" height="35">
<rect x="113.396" y="170.095" width="33.913" height="33.913" fill="url(#paint10_linear_2775_1858)"/>
</mask>
<g mask="url(#mask6_2775_1858)">
<rect x="113.926" y="170.625" width="32.8533" height="32.8533" rx="16.4266" stroke="white" stroke-opacity="0.1" stroke-width="1.05978"/>
</g>
<path fill-rule="evenodd" clip-rule="evenodd" d="M131.148 181.487C131.148 181.277 131.064 181.074 130.915 180.925C130.766 180.776 130.564 180.693 130.353 180.693C130.142 180.693 129.94 180.776 129.791 180.925C129.642 181.074 129.558 181.277 129.558 181.487V183.475C129.558 185.011 128.313 186.256 126.776 186.256H124.789C124.578 186.256 124.376 186.34 124.227 186.489C124.078 186.638 123.994 186.841 123.994 187.051C123.994 187.262 124.078 187.464 124.227 187.613C124.376 187.762 124.578 187.846 124.789 187.846H126.776C128.313 187.846 129.558 189.091 129.558 190.628V192.615C129.558 192.826 129.642 193.028 129.791 193.177C129.94 193.326 130.142 193.41 130.353 193.41C130.564 193.41 130.766 193.326 130.915 193.177C131.064 193.028 131.148 192.826 131.148 192.615V190.628C131.148 189.091 132.393 187.846 133.93 187.846H135.917C136.127 187.846 136.33 187.762 136.479 187.613C136.628 187.464 136.712 187.262 136.712 187.051C136.712 186.841 136.628 186.638 136.479 186.489C136.33 186.34 136.127 186.256 135.917 186.256H133.93C132.393 186.256 131.148 185.011 131.148 183.475V181.487Z" fill="#F8F8F8"/>
<defs>
<filter id="filter0_b_2775_1858" x="116.577" y="99.6194" width="156.848" height="190.761" filterUnits="userSpaceOnUse" color-interpolation-filters="sRGB">
<feFlood flood-opacity="0" result="BackgroundImageFix"/>
<feGaussianBlur in="BackgroundImageFix" stdDeviation="8.47826"/>
<feComposite in2="SourceAlpha" operator="in" result="effect1_backgroundBlur_2775_1858"/>
<feBlend mode="normal" in="SourceGraphic" in2="effect1_backgroundBlur_2775_1858" result="shape"/>
</filter>
<filter id="filter1_bdi_2775_1858" x="171.685" y="79.4838" width="46.6308" height="56.5213" filterUnits="userSpaceOnUse" color-interpolation-filters="sRGB">
<feFlood flood-opacity="0" result="BackgroundImageFix"/>
<feGaussianBlur in="BackgroundImageFix" stdDeviation="2.11957"/>
<feComposite in2="SourceAlpha" operator="in" result="effect1_backgroundBlur_2775_1858"/>
<feColorMatrix in="SourceAlpha" type="matrix" values="0 0 0 0 0 0 0 0 0 0 0 0 0 0 0 0 0 0 127 0" result="hardAlpha"/>
<feOffset dy="22.6083"/>
<feGaussianBlur stdDeviation="8.47826"/>
<feComposite in2="hardAlpha" operator="out"/>
<feColorMatrix type="matrix" values="0 0 0 0 0 0 0 0 0 0 0 0 0 0 0 0 0 0 0.4 0"/>
<feBlend mode="normal" in2="effect1_backgroundBlur_2775_1858" result="effect2_dropShadow_2775_1858"/>
<feBlend mode="normal" in="SourceGraphic" in2="effect2_dropShadow_2775_1858" result="shape"/>
<feColorMatrix in="SourceAlpha" type="matrix" values="0 0 0 0 0 0 0 0 0 0 0 0 0 0 0 0 0 0 127 0" result="hardAlpha"/>
<feOffset/>
<feGaussianBlur stdDeviation="2.82591"/>
<feComposite in2="hardAlpha" operator="arithmetic" k2="-1" k3="1"/>
<feColorMatrix type="matrix" values="0 0 0 0 0.968627 0 0 0 0 0.968627 0 0 0 0 0.968627 0 0 0 0.25 0"/>
<feBlend mode="normal" in2="shape" result="effect3_innerShadow_2775_1858"/>
</filter>
<filter id="filter2_bdi_2775_1858" x="171.685" y="289.321" width="46.6308" height="56.5213" filterUnits="userSpaceOnUse" color-interpolation-filters="sRGB">
<feFlood flood-opacity="0" result="BackgroundImageFix"/>
<feGaussianBlur in="BackgroundImageFix" stdDeviation="2.11957"/>
<feComposite in2="SourceAlpha" operator="in" result="effect1_backgroundBlur_2775_1858"/>
<feColorMatrix in="SourceAlpha" type="matrix" values="0 0 0 0 0 0 0 0 0 0 0 0 0 0 0 0 0 0 127 0" result="hardAlpha"/>
<feOffset dy="22.6083"/>
<feGaussianBlur stdDeviation="8.47826"/>
<feComposite in2="hardAlpha" operator="out"/>
<feColorMatrix type="matrix" values="0 0 0 0 0 0 0 0 0 0 0 0 0 0 0 0 0 0 0.4 0"/>
<feBlend mode="normal" in2="effect1_backgroundBlur_2775_1858" result="effect2_dropShadow_2775_1858"/>
<feBlend mode="normal" in="SourceGraphic" in2="effect2_dropShadow_2775_1858" result="shape"/>
<feColorMatrix in="SourceAlpha" type="matrix" values="0 0 0 0 0 0 0 0 0 0 0 0 0 0 0 0 0 0 127 0" result="hardAlpha"/>
<feOffset/>
<feGaussianBlur stdDeviation="2.82591"/>
<feComposite in2="hardAlpha" operator="arithmetic" k2="-1" k3="1"/>
<feColorMatrix type="matrix" values="0 0 0 0 0.968627 0 0 0 0 0.968627 0 0 0 0 0.968627 0 0 0 0.25 0"/>
<feBlend mode="normal" in2="shape" result="effect3_innerShadow_2775_1858"/>
</filter>
<filter id="filter3_bi_2775_1858" x="74.1847" y="87.432" width="241.631" height="215.136" filterUnits="userSpaceOnUse" color-interpolation-filters="sRGB">
<feFlood flood-opacity="0" result="BackgroundImageFix"/>
<feGaussianBlur in="BackgroundImageFix" stdDeviation="26.4946"/>
<feComposite in2="SourceAlpha" operator="in" result="effect1_backgroundBlur_2775_1858"/>
<feBlend mode="normal" in="SourceGraphic" in2="effect1_backgroundBlur_2775_1858" result="shape"/>
<feColorMatrix in="SourceAlpha" type="matrix" values="0 0 0 0 0 0 0 0 0 0 0 0 0 0 0 0 0 0 127 0" result="hardAlpha"/>
<feOffset/>
<feGaussianBlur stdDeviation="4.23913"/>
<feComposite in2="hardAlpha" operator="arithmetic" k2="-1" k3="1"/>
<feColorMatrix type="matrix" values="0 0 0 0 0.968627 0 0 0 0 0.968627 0 0 0 0 0.968627 0 0 0 0.25 0"/>
<feBlend mode="normal" in2="shape" result="effect2_innerShadow_2775_1858"/>
</filter>
<filter id="filter4_bd_2775_1858" x="108.098" y="129.824" width="173.804" height="148.37" filterUnits="userSpaceOnUse" color-interpolation-filters="sRGB">
<feFlood flood-opacity="0" result="BackgroundImageFix"/>
<feGaussianBlur in="BackgroundImageFix" stdDeviation="8.47826"/>
<feComposite in2="SourceAlpha" operator="in" result="effect1_backgroundBlur_2775_1858"/>
<feColorMatrix in="SourceAlpha" type="matrix" values="0 0 0 0 0 0 0 0 0 0 0 0 0 0 0 0 0 0 127 0" result="hardAlpha"/>
<feOffset dy="25.4348"/>
<feGaussianBlur stdDeviation="12.7174"/>
<feComposite in2="hardAlpha" operator="out"/>
<feColorMatrix type="matrix" values="0 0 0 0 0 0 0 0 0 0 0 0 0 0 0 0 0 0 0.3 0"/>
<feBlend mode="normal" in2="effect1_backgroundBlur_2775_1858" result="effect2_dropShadow_2775_1858"/>
<feBlend mode="normal" in="SourceGraphic" in2="effect2_dropShadow_2775_1858" result="shape"/>
</filter>
<filter id="filter5_bi_2775_1858" x="63.587" y="179.633" width="262.826" height="122.935" filterUnits="userSpaceOnUse" color-interpolation-filters="sRGB">
<feFlood flood-opacity="0" result="BackgroundImageFix"/>
<feGaussianBlur in="BackgroundImageFix" stdDeviation="26.4946"/>
<feComposite in2="SourceAlpha" operator="in" result="effect1_backgroundBlur_2775_1858"/>
<feBlend mode="normal" in="SourceGraphic" in2="effect1_backgroundBlur_2775_1858" result="shape"/>
<feColorMatrix in="SourceAlpha" type="matrix" values="0 0 0 0 0 0 0 0 0 0 0 0 0 0 0 0 0 0 127 0" result="hardAlpha"/>
<feOffset/>
<feGaussianBlur stdDeviation="4.23913"/>
<feComposite in2="hardAlpha" operator="arithmetic" k2="-1" k3="1"/>
<feColorMatrix type="matrix" values="0 0 0 0 0.968627 0 0 0 0 0.968627 0 0 0 0 0.968627 0 0 0 0.25 0"/>
<feBlend mode="normal" in2="shape" result="effect2_innerShadow_2775_1858"/>
</filter>
<filter id="filter6_i_2775_1858" x="113.396" y="170.095" width="36.0327" height="38.1522" filterUnits="userSpaceOnUse" color-interpolation-filters="sRGB">
<feFlood flood-opacity="0" result="BackgroundImageFix"/>
<feBlend mode="normal" in="SourceGraphic" in2="BackgroundImageFix" result="shape"/>
<feColorMatrix in="SourceAlpha" type="matrix" values="0 0 0 0 0 0 0 0 0 0 0 0 0 0 0 0 0 0 127 0" result="hardAlpha"/>
<feOffset dx="2.11957" dy="4.23913"/>
<feGaussianBlur stdDeviation="8.47826"/>
<feComposite in2="hardAlpha" operator="arithmetic" k2="-1" k3="1"/>
<feColorMatrix type="matrix" values="0 0 0 0 0.968627 0 0 0 0 0.968627 0 0 0 0 0.968627 0 0 0 0.06 0"/>
<feBlend mode="normal" in2="shape" result="effect1_innerShadow_2775_1858"/>
</filter>
<radialGradient id="paint0_radial_2775_1858" cx="0" cy="0" r="1" gradientUnits="userSpaceOnUse" gradientTransform="translate(195 195) rotate(90) scale(195)">
<stop stop-color="#D9D9D9"/>
<stop offset="1" stop-color="#737373" stop-opacity="0"/>
</radialGradient>
<linearGradient id="paint1_linear_2775_1858" x1="235.802" y1="64.1172" x2="383.063" y2="-5.40088" gradientUnits="userSpaceOnUse">
<stop offset="0.16638" stop-color="#121212" stop-opacity="0.2"/>
<stop offset="1" stop-color="#121212" stop-opacity="0"/>
</linearGradient>
<linearGradient id="paint2_linear_2775_1858" x1="85.8422" y1="376.751" x2="145.117" y2="271.853" gradientUnits="userSpaceOnUse">
<stop stop-color="#121212" stop-opacity="0"/>
<stop offset="0.83362" stop-color="#121212" stop-opacity="0.2"/>
</linearGradient>
<linearGradient id="paint3_linear_2775_1858" x1="-nan" y1="-nan" x2="-nan" y2="-nan" gradientUnits="userSpaceOnUse">
<stop stop-color="#F8F8F8" stop-opacity="0"/>
<stop offset="1" stop-color="#F8F8F8"/>
</linearGradient>
<linearGradient id="paint4_linear_2775_1858" x1="-nan" y1="-nan" x2="-nan" y2="-nan" gradientUnits="userSpaceOnUse">
<stop stop-color="#F8F8F8"/>
<stop offset="1" stop-color="#F8F8F8" stop-opacity="0"/>
</linearGradient>
<linearGradient id="paint5_linear_2775_1858" x1="194.001" y1="82.9697" x2="196" y2="97.1935" gradientUnits="userSpaceOnUse">
<stop/>
<stop offset="0.5" stop-opacity="0"/>
</linearGradient>
<linearGradient id="paint6_linear_2775_1858" x1="194.001" y1="292.807" x2="196" y2="307.03" gradientUnits="userSpaceOnUse">
<stop/>
<stop offset="0.5" stop-opacity="0"/>
</linearGradient>
<linearGradient id="paint7_linear_2775_1858" x1="188.26" y1="139.089" x2="201.741" y2="235.015" gradientUnits="userSpaceOnUse">
<stop/>
<stop offset="0.5" stop-opacity="0"/>
</linearGradient>
<linearGradient id="paint8_linear_2775_1858" x1="192.313" y1="221.978" x2="197.688" y2="260.222" gradientUnits="userSpaceOnUse">
<stop/>
<stop offset="0.5" stop-opacity="0"/>
</linearGradient>
<linearGradient id="paint9_linear_2775_1858" x1="186.164" y1="132.131" x2="203.836" y2="257.87" gradientUnits="userSpaceOnUse">
<stop/>
<stop offset="0.5" stop-opacity="0"/>
</linearGradient>
<linearGradient id="paint10_linear_2775_1858" x1="127.688" y1="168.086" x2="133.018" y2="206.017" gradientUnits="userSpaceOnUse">
<stop/>
<stop offset="0.5" stop-opacity="0"/>
</linearGradient>
<clipPath id="clip0_2775_1858">
<rect width="390" height="390" fill="white"/>
</clipPath>
<clipPath id="clip1_2775_1858">
<rect width="390" height="390" fill="white"/>
</clipPath>
<clipPath id="clip2_2775_1858">
<rect width="390" height="390" fill="white"/>
</clipPath>
<clipPath id="clip3_2775_1858">
<rect width="60.4076" height="60.4076" fill="white" transform="translate(95.3799 161.617)"/>
</clipPath>
<clipPath id="clip4_2775_1858">
<rect width="60.4076" height="60.4076" fill="white" transform="translate(95.3799 161.617)"/>
</clipPath>
<clipPath id="clip5_2775_1858">
<rect width="60.4076" height="60.4076" fill="white" transform="translate(95.3799 161.617)"/>
</clipPath>
</defs>
</svg>
