<svg width="390" height="329" viewBox="0 0 390 329" fill="none" xmlns="http://www.w3.org/2000/svg">
<g clip-path="url(#clip0_2775_1260)">
<mask id="mask0_2775_1260" style="mask-type:alpha" maskUnits="userSpaceOnUse" x="0" y="0" width="390" height="329">
<rect width="390" height="328.564" fill="url(#paint0_radial_2775_1260)"/>
</mask>
<g mask="url(#mask0_2775_1260)">
<mask id="mask1_2775_1260" style="mask-type:alpha" maskUnits="userSpaceOnUse" x="26" y="-173" width="338" height="338">
<rect x="26.6963" y="-172.296" width="336.578" height="336.578" fill="url(#paint1_linear_2775_1260)"/>
</mask>
<g mask="url(#mask1_2775_1260)">
<rect x="27.1971" y="-171.795" width="335.577" height="335.577" rx="167.788" stroke="white" stroke-opacity="0.15" stroke-width="1.00172"/>
</g>
<mask id="mask2_2775_1260" style="mask-type:alpha" maskUnits="userSpaceOnUse" x="26" y="164" width="338" height="337">
<rect x="26.6963" y="164.282" width="336.578" height="336.578" fill="url(#paint2_linear_2775_1260)"/>
</mask>
<g mask="url(#mask2_2775_1260)">
<rect x="27.1971" y="164.783" width="335.577" height="335.577" rx="167.788" stroke="white" stroke-opacity="0.15" stroke-width="1.00172"/>
</g>
</g>
<g filter="url(#filter0_bd_2775_1260)">
<rect x="122.861" y="93.9214" width="144.248" height="147.253" rx="16.0275" fill="#F7F7F7" fill-opacity="0.02" shape-rendering="crispEdges"/>
</g>
<g filter="url(#filter1_bd_2775_1260)">
<rect x="134.882" y="193.593" width="120.207" height="37.0637" rx="8.01377" fill="#282828" fill-opacity="0.3" shape-rendering="crispEdges"/>
</g>
<mask id="mask3_2775_1260" style="mask-type:alpha" maskUnits="userSpaceOnUse" x="134" y="193" width="122" height="38">
<rect x="134.882" y="193.593" width="120.207" height="37.0637" fill="url(#paint3_linear_2775_1260)"/>
</mask>
<g mask="url(#mask3_2775_1260)">
<rect x="135.383" y="194.094" width="119.205" height="36.062" rx="7.51291" stroke="white" stroke-opacity="0.1" stroke-width="1.00172"/>
</g>
<rect x="150.909" y="204.111" width="28.0482" height="4.00688" rx="1.00172" fill="#F7F7F7" fill-opacity="0.8"/>
<rect x="150.909" y="210.121" width="52.0895" height="4.00688" rx="1.00172" fill="#F7F7F7" fill-opacity="0.1"/>
<g clip-path="url(#clip1_2775_1260)">
<g clip-path="url(#clip2_2775_1260)">
<g clip-path="url(#clip3_2775_1260)">
<path fill-rule="evenodd" clip-rule="evenodd" d="M238.062 203.618C238.788 204.345 238.788 205.523 238.062 206.249L229.69 214.621C228.964 215.347 227.786 215.347 227.06 214.621L223.339 210.9C222.612 210.173 222.612 208.995 223.339 208.269C224.065 207.542 225.243 207.542 225.97 208.269L228.375 210.674L235.431 203.618C236.158 202.892 237.335 202.892 238.062 203.618Z" fill="url(#paint4_linear_2775_1260)"/>
</g>
</g>
</g>
<g filter="url(#filter2_bdi_2775_1260)">
<rect x="134.882" y="150.018" width="120.207" height="37.0637" rx="8.01377" fill="#282828" fill-opacity="0.7" shape-rendering="crispEdges"/>
</g>
<rect x="138.388" y="153.524" width="113.194" height="30.0516" rx="3.50602" stroke="#F7F7F7" stroke-opacity="0.4" stroke-width="1.00172"/>
<mask id="mask4_2775_1260" style="mask-type:alpha" maskUnits="userSpaceOnUse" x="134" y="150" width="122" height="38">
<rect x="134.882" y="150.018" width="120.207" height="37.0637" fill="url(#paint5_linear_2775_1260)"/>
</mask>
<g mask="url(#mask4_2775_1260)">
<rect x="135.383" y="150.519" width="119.205" height="36.062" rx="7.51291" stroke="white" stroke-opacity="0.1" stroke-width="1.00172"/>
</g>
<rect x="150.909" y="163.541" width="28.0482" height="4.00688" rx="1.00172" fill="#F7F7F7" fill-opacity="0.8"/>
<rect x="150.909" y="169.551" width="52.0895" height="4.00688" rx="1.00172" fill="#F7F7F7" fill-opacity="0.1"/>
<g clip-path="url(#clip4_2775_1260)">
<g clip-path="url(#clip5_2775_1260)">
<g clip-path="url(#clip6_2775_1260)">
<path fill-rule="evenodd" clip-rule="evenodd" d="M238.062 163.049C238.788 163.775 238.788 164.953 238.062 165.68L229.69 174.051C228.964 174.778 227.786 174.778 227.06 174.051L223.339 170.331C222.612 169.604 222.612 168.426 223.339 167.7C224.065 166.973 225.243 166.973 225.97 167.7L228.375 170.105L235.431 163.049C236.158 162.322 237.335 162.322 238.062 163.049Z" fill="url(#paint6_linear_2775_1260)"/>
</g>
</g>
</g>
<g filter="url(#filter3_bd_2775_1260)">
<rect x="134.882" y="106.443" width="120.207" height="37.0637" rx="8.01377" fill="#F7F7F7" fill-opacity="0.05" shape-rendering="crispEdges"/>
</g>
<mask id="mask5_2775_1260" style="mask-type:alpha" maskUnits="userSpaceOnUse" x="134" y="106" width="122" height="38">
<rect x="134.882" y="106.443" width="120.207" height="37.0637" fill="url(#paint7_linear_2775_1260)"/>
</mask>
<g mask="url(#mask5_2775_1260)">
<rect x="135.383" y="106.944" width="119.205" height="36.062" rx="7.51291" stroke="white" stroke-opacity="0.1" stroke-width="1.00172"/>
</g>
<rect x="150.909" y="119.966" width="28.0482" height="4.00688" rx="1.00172" fill="#F7F7F7" fill-opacity="0.8"/>
<rect x="150.909" y="125.976" width="52.0895" height="4.00688" rx="1.00172" fill="#F7F7F7" fill-opacity="0.1"/>
<g clip-path="url(#clip7_2775_1260)">
<g clip-path="url(#clip8_2775_1260)">
<g clip-path="url(#clip9_2775_1260)">
<path fill-rule="evenodd" clip-rule="evenodd" d="M238.062 119.474C238.788 120.2 238.788 121.378 238.062 122.105L229.69 130.476C228.964 131.203 227.786 131.203 227.06 130.476L223.339 126.756C222.612 126.029 222.612 124.851 223.339 124.125C224.065 123.398 225.243 123.398 225.97 124.125L228.375 126.53L235.431 119.474C236.158 118.747 237.335 118.747 238.062 119.474Z" fill="url(#paint8_linear_2775_1260)"/>
</g>
</g>
</g>
<mask id="mask6_2775_1260" style="mask-type:alpha" maskUnits="userSpaceOnUse" x="-26" y="93" width="145" height="346">
<rect x="-25.3936" y="93.9214" width="144.248" height="344.592" fill="url(#paint9_linear_2775_1260)"/>
</mask>
<g mask="url(#mask6_2775_1260)">
<rect x="-24.8927" y="94.4222" width="143.246" height="343.59" rx="15.5267" stroke="#F7F7F7" stroke-opacity="0.03" stroke-width="1.00172"/>
</g>
<mask id="mask7_2775_1260" style="mask-type:alpha" maskUnits="userSpaceOnUse" x="271" y="93" width="145" height="346">
<rect x="271.116" y="93.9214" width="144.248" height="344.592" fill="url(#paint10_linear_2775_1260)"/>
</mask>
<g mask="url(#mask7_2775_1260)">
<rect x="271.617" y="94.4222" width="143.246" height="343.59" rx="15.5267" stroke="#F7F7F7" stroke-opacity="0.03" stroke-width="1.00172"/>
</g>
<mask id="mask8_2775_1260" style="mask-type:alpha" maskUnits="userSpaceOnUse" x="122" y="-55" width="294" height="145">
<rect x="122.861" y="-54.3333" width="292.503" height="144.248" fill="url(#paint11_linear_2775_1260)"/>
</mask>
<g mask="url(#mask8_2775_1260)">
<rect x="123.362" y="-53.8324" width="291.501" height="143.246" rx="15.5267" stroke="#F7F7F7" stroke-opacity="0.03" stroke-width="1.00172"/>
</g>
</g>
<defs>
<filter id="filter0_bd_2775_1260" x="72.7753" y="43.8353" width="244.42" height="247.425" filterUnits="userSpaceOnUse" color-interpolation-filters="sRGB">
<feFlood flood-opacity="0" result="BackgroundImageFix"/>
<feGaussianBlur in="BackgroundImageFix" stdDeviation="25.043"/>
<feComposite in2="SourceAlpha" operator="in" result="effect1_backgroundBlur_2775_1260"/>
<feColorMatrix in="SourceAlpha" type="matrix" values="0 0 0 0 0 0 0 0 0 0 0 0 0 0 0 0 0 0 127 0" result="hardAlpha"/>
<feOffset dy="24.0413"/>
<feGaussianBlur stdDeviation="12.0207"/>
<feComposite in2="hardAlpha" operator="out"/>
<feColorMatrix type="matrix" values="0 0 0 0 0 0 0 0 0 0 0 0 0 0 0 0 0 0 0.3 0"/>
<feBlend mode="normal" in2="effect1_backgroundBlur_2775_1260" result="effect2_dropShadow_2775_1260"/>
<feBlend mode="normal" in="SourceGraphic" in2="effect2_dropShadow_2775_1260" result="shape"/>
</filter>
<filter id="filter1_bd_2775_1260" x="110.841" y="177.565" width="168.289" height="101.174" filterUnits="userSpaceOnUse" color-interpolation-filters="sRGB">
<feFlood flood-opacity="0" result="BackgroundImageFix"/>
<feGaussianBlur in="BackgroundImageFix" stdDeviation="8.01377"/>
<feComposite in2="SourceAlpha" operator="in" result="effect1_backgroundBlur_2775_1260"/>
<feColorMatrix in="SourceAlpha" type="matrix" values="0 0 0 0 0 0 0 0 0 0 0 0 0 0 0 0 0 0 127 0" result="hardAlpha"/>
<feOffset dy="24.0413"/>
<feGaussianBlur stdDeviation="12.0207"/>
<feComposite in2="hardAlpha" operator="out"/>
<feColorMatrix type="matrix" values="0 0 0 0 0 0 0 0 0 0 0 0 0 0 0 0 0 0 0.3 0"/>
<feBlend mode="normal" in2="effect1_backgroundBlur_2775_1260" result="effect2_dropShadow_2775_1260"/>
<feBlend mode="normal" in="SourceGraphic" in2="effect2_dropShadow_2775_1260" result="shape"/>
</filter>
<filter id="filter2_bdi_2775_1260" x="118.854" y="133.99" width="152.261" height="93.1601" filterUnits="userSpaceOnUse" color-interpolation-filters="sRGB">
<feFlood flood-opacity="0" result="BackgroundImageFix"/>
<feGaussianBlur in="BackgroundImageFix" stdDeviation="8.01377"/>
<feComposite in2="SourceAlpha" operator="in" result="effect1_backgroundBlur_2775_1260"/>
<feColorMatrix in="SourceAlpha" type="matrix" values="0 0 0 0 0 0 0 0 0 0 0 0 0 0 0 0 0 0 127 0" result="hardAlpha"/>
<feMorphology radius="16.0275" operator="erode" in="SourceAlpha" result="effect2_dropShadow_2775_1260"/>
<feOffset dy="32.0551"/>
<feGaussianBlur stdDeviation="12.0207"/>
<feComposite in2="hardAlpha" operator="out"/>
<feColorMatrix type="matrix" values="0 0 0 0 0 0 0 0 0 0 0 0 0 0 0 0 0 0 0.4 0"/>
<feBlend mode="normal" in2="effect1_backgroundBlur_2775_1260" result="effect2_dropShadow_2775_1260"/>
<feBlend mode="normal" in="SourceGraphic" in2="effect2_dropShadow_2775_1260" result="shape"/>
<feColorMatrix in="SourceAlpha" type="matrix" values="0 0 0 0 0 0 0 0 0 0 0 0 0 0 0 0 0 0 127 0" result="hardAlpha"/>
<feOffset/>
<feGaussianBlur stdDeviation="4.00688"/>
<feComposite in2="hardAlpha" operator="arithmetic" k2="-1" k3="1"/>
<feColorMatrix type="matrix" values="0 0 0 0 0.968627 0 0 0 0 0.968627 0 0 0 0 0.968627 0 0 0 0.25 0"/>
<feBlend mode="normal" in2="shape" result="effect3_innerShadow_2775_1260"/>
</filter>
<filter id="filter3_bd_2775_1260" x="110.841" y="90.4153" width="168.289" height="101.174" filterUnits="userSpaceOnUse" color-interpolation-filters="sRGB">
<feFlood flood-opacity="0" result="BackgroundImageFix"/>
<feGaussianBlur in="BackgroundImageFix" stdDeviation="8.01377"/>
<feComposite in2="SourceAlpha" operator="in" result="effect1_backgroundBlur_2775_1260"/>
<feColorMatrix in="SourceAlpha" type="matrix" values="0 0 0 0 0 0 0 0 0 0 0 0 0 0 0 0 0 0 127 0" result="hardAlpha"/>
<feOffset dy="24.0413"/>
<feGaussianBlur stdDeviation="12.0207"/>
<feComposite in2="hardAlpha" operator="out"/>
<feColorMatrix type="matrix" values="0 0 0 0 0 0 0 0 0 0 0 0 0 0 0 0 0 0 0.3 0"/>
<feBlend mode="normal" in2="effect1_backgroundBlur_2775_1260" result="effect2_dropShadow_2775_1260"/>
<feBlend mode="normal" in="SourceGraphic" in2="effect2_dropShadow_2775_1260" result="shape"/>
</filter>
<radialGradient id="paint0_radial_2775_1260" cx="0" cy="0" r="1" gradientUnits="userSpaceOnUse" gradientTransform="translate(195 164.282) scale(195 164.282)">
<stop/>
<stop offset="1" stop-opacity="0"/>
</radialGradient>
<linearGradient id="paint1_linear_2775_1260" x1="194.985" y1="164.282" x2="194.985" y2="-172.296" gradientUnits="userSpaceOnUse">
<stop/>
<stop offset="0.3" stop-opacity="0"/>
</linearGradient>
<linearGradient id="paint2_linear_2775_1260" x1="194.985" y1="164.282" x2="194.985" y2="500.86" gradientUnits="userSpaceOnUse">
<stop/>
<stop offset="0.2" stop-opacity="0"/>
</linearGradient>
<linearGradient id="paint3_linear_2775_1260" x1="191.267" y1="185.668" x2="198.703" y2="238.581" gradientUnits="userSpaceOnUse">
<stop/>
<stop offset="0.5" stop-opacity="0"/>
</linearGradient>
<linearGradient id="paint4_linear_2775_1260" x1="230.7" y1="203.073" x2="230.7" y2="215.165" gradientUnits="userSpaceOnUse">
<stop stop-color="#F8F8F8" stop-opacity="0.9"/>
<stop offset="1" stop-color="#F8F8F8" stop-opacity="0.3"/>
</linearGradient>
<linearGradient id="paint5_linear_2775_1260" x1="191.267" y1="142.093" x2="198.703" y2="195.006" gradientUnits="userSpaceOnUse">
<stop/>
<stop offset="0.5" stop-opacity="0"/>
</linearGradient>
<linearGradient id="paint6_linear_2775_1260" x1="230.7" y1="162.504" x2="230.7" y2="174.596" gradientUnits="userSpaceOnUse">
<stop stop-color="#F8F8F8" stop-opacity="0.9"/>
<stop offset="1" stop-color="#F8F8F8" stop-opacity="0.3"/>
</linearGradient>
<linearGradient id="paint7_linear_2775_1260" x1="191.267" y1="98.5185" x2="198.703" y2="151.431" gradientUnits="userSpaceOnUse">
<stop/>
<stop offset="0.5" stop-opacity="0"/>
</linearGradient>
<linearGradient id="paint8_linear_2775_1260" x1="230.7" y1="118.929" x2="230.7" y2="131.021" gradientUnits="userSpaceOnUse">
<stop stop-color="#F8F8F8" stop-opacity="0.9"/>
<stop offset="1" stop-color="#F8F8F8" stop-opacity="0.3"/>
</linearGradient>
<linearGradient id="paint9_linear_2775_1260" x1="133.266" y1="258.647" x2="-39.8051" y2="273.788" gradientUnits="userSpaceOnUse">
<stop/>
<stop offset="0.08" stop-opacity="0"/>
</linearGradient>
<linearGradient id="paint10_linear_2775_1260" x1="256.705" y1="258.646" x2="429.776" y2="273.788" gradientUnits="userSpaceOnUse">
<stop/>
<stop offset="0.08" stop-opacity="0"/>
</linearGradient>
<linearGradient id="paint11_linear_2775_1260" x1="266.419" y1="94.9277" x2="271.806" y2="-59.3464" gradientUnits="userSpaceOnUse">
<stop/>
<stop offset="0.03" stop-opacity="0"/>
</linearGradient>
<clipPath id="clip0_2775_1260">
<rect width="390" height="328.564" fill="white"/>
</clipPath>
<clipPath id="clip1_2775_1260">
<rect width="17.0293" height="13.0224" fill="white" transform="translate(222.031 202.608)"/>
</clipPath>
<clipPath id="clip2_2775_1260">
<rect width="17.0293" height="13.0224" fill="white" transform="translate(222.031 202.608)"/>
</clipPath>
<clipPath id="clip3_2775_1260">
<rect width="16.743" height="13.0224" fill="white" transform="translate(222.175 202.608)"/>
</clipPath>
<clipPath id="clip4_2775_1260">
<rect width="17.0293" height="13.0224" fill="white" transform="translate(222.031 162.039)"/>
</clipPath>
<clipPath id="clip5_2775_1260">
<rect width="17.0293" height="13.0224" fill="white" transform="translate(222.031 162.039)"/>
</clipPath>
<clipPath id="clip6_2775_1260">
<rect width="16.743" height="13.0224" fill="white" transform="translate(222.175 162.039)"/>
</clipPath>
<clipPath id="clip7_2775_1260">
<rect width="17.0293" height="13.0224" fill="white" transform="translate(222.031 118.464)"/>
</clipPath>
<clipPath id="clip8_2775_1260">
<rect width="17.0293" height="13.0224" fill="white" transform="translate(222.031 118.464)"/>
</clipPath>
<clipPath id="clip9_2775_1260">
<rect width="16.743" height="13.0224" fill="white" transform="translate(222.175 118.464)"/>
</clipPath>
</defs>
</svg>
