<svg width="390" height="390" viewBox="0 0 390 390" fill="none" xmlns="http://www.w3.org/2000/svg">
<g clip-path="url(#clip0_2756_623)">
<mask id="mask0_2756_623" style="mask-type:alpha" maskUnits="userSpaceOnUse" x="-1" y="-1" width="391" height="391">
<rect x="-0.303711" y="-0.446289" width="390" height="390" fill="url(#paint0_radial_2756_623)"/>
</mask>
<g mask="url(#mask0_2756_623)">
<rect x="0.276646" y="-194.866" width="388.839" height="388.839" rx="194.42" stroke="#9747FF" stroke-opacity="0.5" stroke-width="1.16071"/>
<rect x="0.276646" y="195.134" width="388.839" height="388.839" rx="194.42" stroke="#9747FF" stroke-opacity="0.5" stroke-width="1.16071"/>
</g>
<g filter="url(#filter0_bi_2756_623)">
<rect x="107.946" y="69.6428" width="69.6429" height="69.6429" rx="34.8214" fill="#F7F7F7" fill-opacity="0.01"/>
<rect x="108.527" y="70.2232" width="68.4821" height="68.4821" rx="34.2411" stroke="#F7F7F7" stroke-opacity="0.1" stroke-width="1.16071"/>
</g>
<g opacity="0.7">
<path d="M142.768 92.8572C149.179 92.8572 154.375 98.0537 154.375 104.464C154.375 110.875 149.179 116.071 142.768 116.071C136.358 116.071 131.161 110.875 131.161 104.464C131.161 98.0537 136.358 92.8572 142.768 92.8572ZM142.768 94.5982C140.152 94.5982 137.642 95.6377 135.792 97.488C133.942 99.3382 132.902 101.848 132.902 104.464C132.902 107.081 133.942 109.59 135.792 111.441C137.642 113.291 140.152 114.33 142.768 114.33C145.385 114.33 147.894 113.291 149.745 111.441C151.595 109.59 152.634 107.081 152.634 104.464C152.634 101.848 151.595 99.3382 149.745 97.488C147.894 95.6377 145.385 94.5982 142.768 94.5982ZM145.577 101.011C145.65 100.923 145.739 100.849 145.839 100.795C145.94 100.741 146.051 100.708 146.164 100.696C146.278 100.685 146.393 100.696 146.503 100.729C146.612 100.762 146.714 100.816 146.802 100.889C146.891 100.961 146.964 101.05 147.018 101.151C147.072 101.252 147.106 101.362 147.117 101.476C147.129 101.59 147.118 101.705 147.084 101.814C147.051 101.924 146.997 102.025 146.925 102.114L141.702 108.498C141.625 108.592 141.529 108.669 141.42 108.724C141.311 108.778 141.192 108.81 141.071 108.816C140.949 108.822 140.828 108.802 140.715 108.759C140.601 108.715 140.498 108.648 140.412 108.562L138.091 106.24C137.937 106.075 137.853 105.857 137.857 105.631C137.861 105.406 137.952 105.191 138.112 105.031C138.271 104.872 138.487 104.78 138.712 104.776C138.938 104.772 139.156 104.856 139.321 105.01L140.962 106.65L145.577 101.011Z" fill="#F7F7F7" fill-opacity="0.7"/>
</g>
<g filter="url(#filter1_bi_2756_623)">
<rect x="212.411" y="69.6428" width="69.6429" height="69.6429" rx="34.8214" fill="#F7F7F7" fill-opacity="0.01"/>
<rect x="212.991" y="70.2232" width="68.4821" height="68.4821" rx="34.2411" stroke="#F7F7F7" stroke-opacity="0.1" stroke-width="1.16071"/>
</g>
<g opacity="0.7">
<path d="M258.308 107.024C259.014 108.73 259.013 110.646 258.306 112.352C257.6 114.058 256.245 115.413 254.539 116.12C252.833 116.826 250.916 116.826 249.21 116.119C247.505 115.412 246.149 114.057 245.442 112.351C244.736 110.645 244.737 108.729 245.444 107.023C246.15 105.317 247.505 103.962 249.211 103.255C250.917 102.549 252.834 102.549 254.54 103.256C256.245 103.963 257.601 105.318 258.308 107.024ZM256.699 107.69C256.169 106.411 255.152 105.395 253.873 104.865C252.594 104.335 251.157 104.334 249.877 104.864C248.598 105.394 247.582 106.41 247.052 107.689C246.522 108.968 246.522 110.406 247.051 111.685C247.581 112.964 248.598 113.98 249.877 114.51C251.156 115.04 252.593 115.041 253.873 114.511C255.152 113.981 256.168 112.965 256.698 111.686C257.228 110.407 257.228 108.969 256.699 107.69ZM251.004 92.2769C251.235 92.2769 251.457 92.3686 251.62 92.5318C251.783 92.6951 251.875 92.9165 251.875 93.1474V94.5983H252.165C253.28 94.5982 254.352 95.0256 255.16 95.7924C255.969 96.5593 256.453 97.6071 256.512 98.72L256.518 98.951V100.112C256.518 100.343 256.426 100.564 256.263 100.727C256.1 100.89 255.878 100.982 255.647 100.982C255.416 100.982 255.195 100.89 255.032 100.727C254.869 100.564 254.777 100.343 254.777 100.112V98.951C254.777 98.2583 254.502 97.594 254.012 97.1043C253.522 96.6145 252.858 96.3394 252.165 96.3394H239.978C239.285 96.3394 238.621 96.6145 238.131 97.1043C237.641 97.594 237.366 98.2583 237.366 98.951V109.978C237.366 110.321 237.434 110.66 237.565 110.977C237.696 111.294 237.888 111.582 238.131 111.824C238.374 112.067 238.661 112.259 238.978 112.391C239.295 112.522 239.635 112.589 239.978 112.589H242.299C242.53 112.589 242.751 112.681 242.915 112.844C243.078 113.008 243.17 113.229 243.17 113.46C243.17 113.691 243.078 113.912 242.915 114.075C242.751 114.239 242.53 114.33 242.299 114.33H239.978C238.823 114.33 237.716 113.872 236.9 113.056C236.084 112.239 235.625 111.132 235.625 109.978V98.951C235.625 97.7966 236.084 96.6894 236.9 95.8732C237.716 95.0569 238.823 94.5983 239.978 94.5983H240.268V93.1474C240.268 92.937 240.344 92.7338 240.482 92.5752C240.621 92.4167 240.812 92.3136 241.02 92.285L241.138 92.2769C241.369 92.2769 241.591 92.3686 241.754 92.5318C241.917 92.6951 242.009 92.9165 242.009 93.1474V94.5983H250.134V93.1474C250.134 92.937 250.21 92.7338 250.348 92.5752C250.487 92.4167 250.678 92.3136 250.886 92.285L251.004 92.2769ZM251.875 106.205C252.106 106.205 252.327 106.297 252.491 106.46C252.654 106.624 252.746 106.845 252.746 107.076V109.327L254.521 111.104C254.669 111.251 254.759 111.447 254.775 111.655C254.79 111.863 254.73 112.07 254.606 112.238L254.521 112.335C254.441 112.416 254.345 112.48 254.239 112.524C254.133 112.568 254.02 112.59 253.906 112.59C253.791 112.59 253.678 112.568 253.572 112.524C253.467 112.48 253.371 112.416 253.29 112.335L251.259 110.304C251.095 110.141 251.004 109.92 251.003 109.689V107.077C251.003 106.846 251.095 106.625 251.258 106.462C251.422 106.298 251.643 106.207 251.874 106.207L251.875 106.205Z" fill="#F7F7F7" fill-opacity="0.7"/>
</g>
<g filter="url(#filter2_bi_2756_623)">
<rect x="55.7139" y="160.178" width="69.6429" height="69.6429" rx="34.8214" fill="#F7F7F7" fill-opacity="0.01"/>
<rect x="56.2942" y="160.759" width="68.4821" height="68.4821" rx="34.2411" stroke="#F7F7F7" stroke-opacity="0.1" stroke-width="1.16071"/>
</g>
<g opacity="0.7">
<path d="M90.5372 204.241C90.7681 204.241 90.9895 204.333 91.1527 204.496C91.316 204.66 91.4077 204.881 91.4077 205.112V206.88C91.4077 206.994 91.3852 207.107 91.3415 207.213C91.2977 207.318 91.2336 207.414 91.1527 207.495C91.0719 207.576 90.9759 207.64 90.8703 207.684C90.7647 207.728 90.6515 207.75 90.5372 207.75C90.4229 207.75 90.3097 207.728 90.204 207.684C90.0984 207.64 90.0025 207.576 89.9216 207.495C89.8408 207.414 89.7767 207.318 89.7329 207.213C89.6892 207.107 89.6667 206.994 89.6667 206.88V205.112C89.6667 204.881 89.7584 204.66 89.9216 204.496C90.0849 204.333 90.3063 204.241 90.5372 204.241ZM82.7732 201.536C82.854 201.455 82.95 201.391 83.0557 201.347C83.1613 201.303 83.2746 201.281 83.3889 201.281C83.5033 201.281 83.6165 201.303 83.7222 201.347C83.8278 201.391 83.9238 201.455 84.0047 201.536C84.0855 201.617 84.1497 201.713 84.1935 201.818C84.2372 201.924 84.2597 202.037 84.2597 202.152C84.2597 202.266 84.2372 202.379 84.1935 202.485C84.1497 202.59 84.0855 202.686 84.0047 202.767L82.7546 204.017C82.6737 204.098 82.5777 204.162 82.4721 204.206C82.3664 204.25 82.2532 204.272 82.1388 204.272C82.0245 204.272 81.9112 204.25 81.8056 204.206C81.6999 204.162 81.6039 204.098 81.5231 204.017C81.4422 203.936 81.3781 203.84 81.3343 203.735C81.2905 203.629 81.268 203.516 81.268 203.402C81.268 203.287 81.2905 203.174 81.3343 203.068C81.3781 202.963 81.4422 202.867 81.5231 202.786L82.7732 201.536ZM97.0685 201.536C97.1494 201.455 97.2454 201.391 97.351 201.347C97.4567 201.303 97.5699 201.281 97.6843 201.281C97.7987 201.281 97.9119 201.303 98.0176 201.347C98.1232 201.391 98.2192 201.455 98.3 201.536L99.5501 202.786C99.631 202.867 99.6951 202.963 99.7389 203.068C99.7827 203.174 99.8052 203.287 99.8052 203.402C99.8052 203.516 99.7827 203.629 99.7389 203.735C99.6951 203.84 99.631 203.936 99.5501 204.017C99.4693 204.098 99.3733 204.162 99.2676 204.206C99.162 204.25 99.0487 204.272 98.9344 204.272C98.82 204.272 98.7068 204.25 98.6011 204.206C98.4955 204.162 98.3995 204.098 98.3186 204.017L97.0685 202.767C96.9876 202.686 96.9235 202.59 96.8797 202.485C96.8359 202.379 96.8134 202.266 96.8134 202.152C96.8134 202.037 96.8359 201.924 96.8797 201.818C96.9235 201.713 96.9876 201.617 97.0685 201.536ZM85.6123 190.078C86.9219 188.79 88.6877 188.071 90.5249 188.079C92.3621 188.086 94.1219 188.819 95.421 190.118C96.7201 191.417 97.4532 193.177 97.4607 195.014C97.4682 196.852 96.7494 198.617 95.4609 199.927C94.1513 201.215 92.3856 201.934 90.5484 201.927C88.7111 201.919 86.9513 201.186 85.6522 199.887C84.3531 198.588 83.62 196.828 83.6125 194.991C83.605 193.154 84.3238 191.388 85.6123 190.078ZM86.8426 191.31C85.8631 192.289 85.3128 193.618 85.3128 195.003C85.3128 196.389 85.8631 197.717 86.8426 198.697C87.8222 199.676 89.1507 200.226 90.536 200.226C91.9213 200.226 93.2499 199.676 94.2294 198.697C94.7144 198.212 95.0992 197.636 95.3617 197.002C95.6242 196.368 95.7593 195.689 95.7593 195.003C95.7593 194.317 95.6242 193.638 95.3617 193.004C95.0992 192.371 94.7144 191.795 94.2294 191.31C93.7444 190.825 93.1686 190.44 92.5349 190.178C91.9012 189.915 91.222 189.78 90.536 189.78C89.1507 189.78 87.8222 190.33 86.8426 191.31ZM102.412 194.133C102.527 194.133 102.64 194.155 102.746 194.199C102.851 194.243 102.947 194.307 103.028 194.388C103.109 194.469 103.173 194.564 103.217 194.67C103.26 194.776 103.283 194.889 103.283 195.003C103.283 195.118 103.26 195.231 103.217 195.336C103.173 195.442 103.109 195.538 103.028 195.619C102.947 195.7 102.851 195.764 102.746 195.808C102.64 195.851 102.527 195.874 102.412 195.874H100.645C100.53 195.874 100.417 195.851 100.312 195.808C100.206 195.764 100.11 195.7 100.029 195.619C99.9483 195.538 99.8842 195.442 99.8404 195.336C99.7967 195.231 99.7742 195.118 99.7742 195.003C99.7742 194.889 99.7967 194.776 99.8404 194.67C99.8842 194.564 99.9483 194.469 100.029 194.388C100.11 194.307 100.206 194.243 100.312 194.199C100.417 194.155 100.53 194.133 100.645 194.133H102.412ZM80.4274 194.133C80.5417 194.133 80.6549 194.155 80.7605 194.199C80.8661 194.243 80.9621 194.307 81.0429 194.388C81.1238 194.469 81.1879 194.564 81.2316 194.67C81.2754 194.776 81.2979 194.889 81.2979 195.003C81.2979 195.118 81.2754 195.231 81.2316 195.336C81.1879 195.442 81.1238 195.538 81.0429 195.619C80.9621 195.7 80.8661 195.764 80.7605 195.808C80.6549 195.851 80.5417 195.874 80.4274 195.874H78.6596C78.5453 195.874 78.4321 195.851 78.3265 195.808C78.2208 195.764 78.1249 195.7 78.044 195.619C77.9632 195.538 77.8991 195.442 77.8553 195.336C77.8116 195.231 77.7891 195.118 77.7891 195.003C77.7891 194.889 77.8116 194.776 77.8553 194.67C77.8991 194.564 77.9632 194.469 78.044 194.388C78.1249 194.307 78.2208 194.243 78.3265 194.199C78.4321 194.155 78.5453 194.133 78.6596 194.133H80.4274ZM98.3186 185.989C98.3995 185.908 98.4955 185.844 98.6011 185.8C98.7068 185.757 98.82 185.734 98.9344 185.734C99.0487 185.734 99.162 185.757 99.2676 185.8C99.3733 185.844 99.4693 185.908 99.5501 185.989C99.631 186.07 99.6951 186.166 99.7389 186.272C99.7827 186.377 99.8052 186.491 99.8052 186.605C99.8052 186.719 99.7827 186.832 99.7389 186.938C99.6951 187.044 99.631 187.14 99.5501 187.221L98.3 188.471C98.2192 188.552 98.1232 188.616 98.0175 188.66C97.9119 188.703 97.7986 188.726 97.6843 188.726C97.5699 188.726 97.4567 188.703 97.351 188.66C97.2454 188.616 97.1494 188.552 97.0685 188.471C96.9877 188.39 96.9235 188.294 96.8798 188.188C96.836 188.083 96.8135 187.969 96.8135 187.855C96.8135 187.741 96.836 187.627 96.8798 187.522C96.9235 187.416 96.9877 187.32 97.0685 187.239L98.3186 185.989ZM81.5219 185.989C81.6028 185.908 81.6988 185.844 81.8044 185.8C81.9101 185.757 82.0233 185.734 82.1377 185.734C82.252 185.734 82.3653 185.757 82.4709 185.8C82.5766 185.844 82.6726 185.908 82.7534 185.989L84.0035 187.239C84.0844 187.32 84.1485 187.416 84.1923 187.522C84.2361 187.627 84.2586 187.741 84.2586 187.855C84.2586 187.969 84.2361 188.083 84.1923 188.188C84.1485 188.294 84.0844 188.39 84.0035 188.471C83.9227 188.552 83.8267 188.616 83.721 188.66C83.6154 188.703 83.5021 188.726 83.3878 188.726C83.2734 188.726 83.1602 188.703 83.0545 188.66C82.9489 188.616 82.8529 188.552 82.772 188.471L81.5231 187.22C81.4422 187.139 81.378 187.043 81.3342 186.937C81.2904 186.831 81.2679 186.718 81.2679 186.604C81.2679 186.489 81.2904 186.376 81.3342 186.27C81.378 186.165 81.4422 186.069 81.5231 185.988L81.5219 185.989ZM90.536 182.255C90.7669 182.255 90.9883 182.347 91.1516 182.51C91.3148 182.673 91.4066 182.895 91.4066 183.126V184.893C91.4066 185.124 91.3148 185.346 91.1516 185.509C90.9883 185.672 90.7669 185.764 90.536 185.764C90.3051 185.764 90.0837 185.672 89.9205 185.509C89.7572 185.346 89.6655 185.124 89.6655 184.893V183.126C89.6655 182.895 89.7572 182.673 89.9205 182.51C90.0837 182.347 90.3051 182.255 90.536 182.255Z" fill="#F7F7F7" fill-opacity="0.7"/>
</g>
<g filter="url(#filter3_bi_2756_623)">
<rect x="264.644" y="160.178" width="69.6429" height="69.6429" rx="34.8214" fill="#F7F7F7" fill-opacity="0.01"/>
<rect x="265.224" y="160.759" width="68.4821" height="68.4821" rx="34.2411" stroke="#F7F7F7" stroke-opacity="0.1" stroke-width="1.16071"/>
</g>
<g opacity="0.7">
<path d="M304.977 184.553C305.625 184.553 306.267 184.681 306.865 184.929C307.464 185.177 308.008 185.54 308.466 185.998C308.924 186.456 309.287 187 309.535 187.598C309.783 188.197 309.91 188.838 309.91 189.486V200.513C309.91 201.78 309.423 202.998 308.549 203.916C307.675 204.833 306.482 205.379 305.217 205.44L304.977 205.446H293.951C292.642 205.446 291.388 204.926 290.462 204.001C289.537 203.076 289.018 201.821 289.018 200.513V189.486C289.018 188.178 289.537 186.923 290.462 185.998C291.388 185.073 292.642 184.553 293.951 184.553H304.977ZM308.169 193.259H290.759V200.513C290.759 201.326 291.069 202.108 291.626 202.7C292.182 203.292 292.944 203.65 293.756 203.699L293.951 203.705H304.977C305.824 203.705 306.636 203.369 307.234 202.77C307.833 202.171 308.169 201.36 308.169 200.513V193.259ZM299.464 195.58C299.772 195.58 300.067 195.702 300.285 195.92C300.502 196.138 300.625 196.433 300.625 196.741C300.625 197.049 300.502 197.344 300.285 197.561C300.067 197.779 299.772 197.901 299.464 197.901C299.156 197.901 298.861 197.779 298.643 197.561C298.426 197.344 298.303 197.049 298.303 196.741C298.303 196.433 298.426 196.138 298.643 195.92C298.861 195.702 299.156 195.58 299.464 195.58ZM304.977 186.294H293.951C293.104 186.294 292.292 186.631 291.694 187.229C291.095 187.828 290.759 188.64 290.759 189.486V191.518H308.169V189.486C308.169 188.673 307.859 187.891 307.302 187.299C306.746 186.707 305.984 186.35 305.172 186.3L304.977 186.294Z" fill="#F7F7F7" fill-opacity="0.7"/>
</g>
<g filter="url(#filter4_bi_2756_623)">
<rect x="107.947" y="250.714" width="69.6429" height="69.6429" rx="34.8214" fill="#F7F7F7" fill-opacity="0.01"/>
<rect x="108.528" y="251.295" width="68.4821" height="68.4821" rx="34.2411" stroke="#F7F7F7" stroke-opacity="0.1" stroke-width="1.16071"/>
</g>
<g opacity="0.7">
<path d="M137.836 275.089C138.067 275.089 138.288 275.181 138.451 275.344C138.614 275.508 138.706 275.729 138.706 275.96V295.112C138.706 295.343 138.614 295.564 138.451 295.727C138.288 295.89 138.067 295.982 137.836 295.982C137.605 295.982 137.383 295.89 137.22 295.727C137.057 295.564 136.965 295.343 136.965 295.112V275.96C136.965 275.729 137.057 275.508 137.22 275.344C137.383 275.181 137.605 275.089 137.836 275.089ZM147.702 277.411C147.933 277.411 148.154 277.503 148.317 277.666C148.481 277.829 148.572 278.05 148.572 278.281V292.79C148.572 293.021 148.481 293.243 148.317 293.406C148.154 293.569 147.933 293.661 147.702 293.661C147.471 293.661 147.249 293.569 147.086 293.406C146.923 293.243 146.831 293.021 146.831 292.79V278.281C146.831 278.05 146.923 277.829 147.086 277.666C147.249 277.503 147.471 277.411 147.702 277.411ZM142.769 279.732C143 279.732 143.221 279.824 143.384 279.987C143.548 280.15 143.639 280.372 143.639 280.603V290.469C143.639 290.7 143.548 290.921 143.384 291.084C143.221 291.248 143 291.339 142.769 291.339C142.538 291.339 142.316 291.248 142.153 291.084C141.99 290.921 141.898 290.7 141.898 290.469V280.603C141.898 280.372 141.99 280.15 142.153 279.987C142.316 279.824 142.538 279.732 142.769 279.732ZM133.193 282.054C133.424 282.054 133.645 282.145 133.808 282.309C133.972 282.472 134.063 282.693 134.063 282.924V288.147C134.063 288.378 133.972 288.6 133.808 288.763C133.645 288.926 133.424 289.018 133.193 289.018C132.962 289.018 132.74 288.926 132.577 288.763C132.414 288.6 132.322 288.378 132.322 288.147V282.924C132.322 282.693 132.414 282.472 132.577 282.309C132.74 282.145 132.962 282.054 133.193 282.054ZM152.345 282.054C152.575 282.054 152.797 282.145 152.96 282.309C153.123 282.472 153.215 282.693 153.215 282.924V288.147C153.215 288.378 153.123 288.6 152.96 288.763C152.797 288.926 152.575 289.018 152.345 289.018C152.114 289.018 151.892 288.926 151.729 288.763C151.566 288.6 151.474 288.378 151.474 288.147V282.924C151.474 282.693 151.566 282.472 151.729 282.309C151.892 282.145 152.114 282.054 152.345 282.054Z" fill="#F7F7F7" fill-opacity="0.7"/>
</g>
<g filter="url(#filter5_bi_2756_623)">
<rect x="212.411" y="250.714" width="69.6429" height="69.6429" rx="34.8214" fill="#F7F7F7" fill-opacity="0.01"/>
<rect x="212.991" y="251.295" width="68.4821" height="68.4821" rx="34.2411" stroke="#F7F7F7" stroke-opacity="0.1" stroke-width="1.16071"/>
</g>
<g opacity="0.7">
<path d="M246.211 275.229C248.673 275.229 251.035 276.207 252.777 277.948C254.518 279.69 255.496 282.052 255.496 284.514C255.499 286.618 254.785 288.66 253.472 290.303L253.362 290.435L257.272 294.346C257.42 294.493 257.51 294.689 257.525 294.897C257.541 295.105 257.481 295.312 257.357 295.48L257.272 295.577C257.191 295.658 257.095 295.722 256.99 295.766C256.884 295.81 256.771 295.832 256.657 295.832C256.542 295.832 256.429 295.81 256.323 295.766C256.218 295.722 256.122 295.658 256.041 295.577L252.13 291.667L251.998 291.777C250.464 293.002 248.573 293.719 246.565 293.794L246.21 293.801C243.747 293.801 241.385 292.823 239.644 291.082C237.902 289.34 236.924 286.978 236.924 284.516C236.924 282.053 237.902 279.691 239.644 277.95C241.385 276.208 243.747 275.23 246.21 275.23L246.211 275.229ZM246.211 276.97C244.21 276.97 242.291 277.765 240.876 279.18C239.461 280.595 238.666 282.514 238.666 284.514C238.666 286.515 239.461 288.434 240.876 289.849C242.291 291.264 244.21 292.059 246.211 292.059C248.24 292.059 250.14 291.256 251.545 289.849C252.951 288.442 253.755 286.543 253.755 284.514C253.755 282.514 252.96 280.595 251.546 279.18C250.131 277.765 248.212 276.97 246.211 276.97Z" fill="#F7F7F7" fill-opacity="0.7"/>
</g>
<rect x="160.759" y="160.759" width="68.4821" height="68.4821" rx="34.2411" stroke="#F7F7F7" stroke-opacity="0.4" stroke-width="1.16071"/>
<g filter="url(#filter6_bdi_2756_623)">
<rect x="164.821" y="164.822" width="60.3571" height="60.3571" rx="30.1786" fill="#F7F7F7" fill-opacity="0.01" shape-rendering="crispEdges"/>
<rect x="164.821" y="164.822" width="60.3571" height="60.3571" rx="30.1786" fill="#121212" fill-opacity="0.3" shape-rendering="crispEdges"/>
</g>
<mask id="mask1_2756_623" style="mask-type:alpha" maskUnits="userSpaceOnUse" x="165" y="164" width="61" height="62">
<rect x="165" y="165" width="60.3571" height="60.3571" fill="url(#paint1_linear_2756_623)"/>
</mask>
<g mask="url(#mask1_2756_623)">
<rect x="165.402" y="165.402" width="59.1964" height="59.1964" rx="29.5982" stroke="#F7F7F7" stroke-opacity="0.1" stroke-width="1.16071"/>
</g>
<g clip-path="url(#clip1_2756_623)">
<g clip-path="url(#clip2_2756_623)">
<g clip-path="url(#clip3_2756_623)">
<path fill-rule="evenodd" clip-rule="evenodd" d="M195.87 188.906C195.87 188.425 195.48 188.036 194.999 188.036C194.519 188.036 194.129 188.425 194.129 188.906V191.083C194.129 192.765 192.765 194.129 191.082 194.129H188.906C188.425 194.129 188.035 194.519 188.035 195C188.035 195.481 188.425 195.87 188.906 195.87H191.082C192.765 195.87 194.129 197.235 194.129 198.917V201.094C194.129 201.574 194.519 201.964 194.999 201.964C195.48 201.964 195.87 201.574 195.87 201.094V198.917C195.87 197.235 197.234 195.87 198.917 195.87H201.093C201.574 195.87 201.964 195.481 201.964 195C201.964 194.519 201.574 194.129 201.093 194.129H198.917C197.234 194.129 195.87 192.765 195.87 191.083V188.906Z" fill="#F8F8F8"/>
</g>
</g>
</g>
</g>
<defs>
<filter id="filter0_bi_2756_623" x="49.9106" y="11.6071" width="185.714" height="185.714" filterUnits="userSpaceOnUse" color-interpolation-filters="sRGB">
<feFlood flood-opacity="0" result="BackgroundImageFix"/>
<feGaussianBlur in="BackgroundImageFix" stdDeviation="29.0179"/>
<feComposite in2="SourceAlpha" operator="in" result="effect1_backgroundBlur_2756_623"/>
<feBlend mode="normal" in="SourceGraphic" in2="effect1_backgroundBlur_2756_623" result="shape"/>
<feColorMatrix in="SourceAlpha" type="matrix" values="0 0 0 0 0 0 0 0 0 0 0 0 0 0 0 0 0 0 127 0" result="hardAlpha"/>
<feMorphology radius="1.16071" operator="erode" in="SourceAlpha" result="effect2_innerShadow_2756_623"/>
<feOffset dx="2.32143" dy="4.64286"/>
<feGaussianBlur stdDeviation="9.28571"/>
<feComposite in2="hardAlpha" operator="arithmetic" k2="-1" k3="1"/>
<feColorMatrix type="matrix" values="0 0 0 0 0.968627 0 0 0 0 0.968627 0 0 0 0 0.968627 0 0 0 0.06 0"/>
<feBlend mode="normal" in2="shape" result="effect2_innerShadow_2756_623"/>
</filter>
<filter id="filter1_bi_2756_623" x="154.375" y="11.6071" width="185.714" height="185.714" filterUnits="userSpaceOnUse" color-interpolation-filters="sRGB">
<feFlood flood-opacity="0" result="BackgroundImageFix"/>
<feGaussianBlur in="BackgroundImageFix" stdDeviation="29.0179"/>
<feComposite in2="SourceAlpha" operator="in" result="effect1_backgroundBlur_2756_623"/>
<feBlend mode="normal" in="SourceGraphic" in2="effect1_backgroundBlur_2756_623" result="shape"/>
<feColorMatrix in="SourceAlpha" type="matrix" values="0 0 0 0 0 0 0 0 0 0 0 0 0 0 0 0 0 0 127 0" result="hardAlpha"/>
<feMorphology radius="1.16071" operator="erode" in="SourceAlpha" result="effect2_innerShadow_2756_623"/>
<feOffset dx="2.32143" dy="4.64286"/>
<feGaussianBlur stdDeviation="9.28571"/>
<feComposite in2="hardAlpha" operator="arithmetic" k2="-1" k3="1"/>
<feColorMatrix type="matrix" values="0 0 0 0 0.968627 0 0 0 0 0.968627 0 0 0 0 0.968627 0 0 0 0.06 0"/>
<feBlend mode="normal" in2="shape" result="effect2_innerShadow_2756_623"/>
</filter>
<filter id="filter2_bi_2756_623" x="-2.32185" y="102.143" width="185.714" height="185.714" filterUnits="userSpaceOnUse" color-interpolation-filters="sRGB">
<feFlood flood-opacity="0" result="BackgroundImageFix"/>
<feGaussianBlur in="BackgroundImageFix" stdDeviation="29.0179"/>
<feComposite in2="SourceAlpha" operator="in" result="effect1_backgroundBlur_2756_623"/>
<feBlend mode="normal" in="SourceGraphic" in2="effect1_backgroundBlur_2756_623" result="shape"/>
<feColorMatrix in="SourceAlpha" type="matrix" values="0 0 0 0 0 0 0 0 0 0 0 0 0 0 0 0 0 0 127 0" result="hardAlpha"/>
<feMorphology radius="1.16071" operator="erode" in="SourceAlpha" result="effect2_innerShadow_2756_623"/>
<feOffset dx="2.32143" dy="4.64286"/>
<feGaussianBlur stdDeviation="9.28571"/>
<feComposite in2="hardAlpha" operator="arithmetic" k2="-1" k3="1"/>
<feColorMatrix type="matrix" values="0 0 0 0 0.968627 0 0 0 0 0.968627 0 0 0 0 0.968627 0 0 0 0.06 0"/>
<feBlend mode="normal" in2="shape" result="effect2_innerShadow_2756_623"/>
</filter>
<filter id="filter3_bi_2756_623" x="206.608" y="102.143" width="185.714" height="185.714" filterUnits="userSpaceOnUse" color-interpolation-filters="sRGB">
<feFlood flood-opacity="0" result="BackgroundImageFix"/>
<feGaussianBlur in="BackgroundImageFix" stdDeviation="29.0179"/>
<feComposite in2="SourceAlpha" operator="in" result="effect1_backgroundBlur_2756_623"/>
<feBlend mode="normal" in="SourceGraphic" in2="effect1_backgroundBlur_2756_623" result="shape"/>
<feColorMatrix in="SourceAlpha" type="matrix" values="0 0 0 0 0 0 0 0 0 0 0 0 0 0 0 0 0 0 127 0" result="hardAlpha"/>
<feMorphology radius="1.16071" operator="erode" in="SourceAlpha" result="effect2_innerShadow_2756_623"/>
<feOffset dx="2.32143" dy="4.64286"/>
<feGaussianBlur stdDeviation="9.28571"/>
<feComposite in2="hardAlpha" operator="arithmetic" k2="-1" k3="1"/>
<feColorMatrix type="matrix" values="0 0 0 0 0.968627 0 0 0 0 0.968627 0 0 0 0 0.968627 0 0 0 0.06 0"/>
<feBlend mode="normal" in2="shape" result="effect2_innerShadow_2756_623"/>
</filter>
<filter id="filter4_bi_2756_623" x="49.9116" y="192.679" width="185.714" height="185.714" filterUnits="userSpaceOnUse" color-interpolation-filters="sRGB">
<feFlood flood-opacity="0" result="BackgroundImageFix"/>
<feGaussianBlur in="BackgroundImageFix" stdDeviation="29.0179"/>
<feComposite in2="SourceAlpha" operator="in" result="effect1_backgroundBlur_2756_623"/>
<feBlend mode="normal" in="SourceGraphic" in2="effect1_backgroundBlur_2756_623" result="shape"/>
<feColorMatrix in="SourceAlpha" type="matrix" values="0 0 0 0 0 0 0 0 0 0 0 0 0 0 0 0 0 0 127 0" result="hardAlpha"/>
<feMorphology radius="1.16071" operator="erode" in="SourceAlpha" result="effect2_innerShadow_2756_623"/>
<feOffset dx="2.32143" dy="4.64286"/>
<feGaussianBlur stdDeviation="9.28571"/>
<feComposite in2="hardAlpha" operator="arithmetic" k2="-1" k3="1"/>
<feColorMatrix type="matrix" values="0 0 0 0 0.968627 0 0 0 0 0.968627 0 0 0 0 0.968627 0 0 0 0.06 0"/>
<feBlend mode="normal" in2="shape" result="effect2_innerShadow_2756_623"/>
</filter>
<filter id="filter5_bi_2756_623" x="154.375" y="192.679" width="185.714" height="185.714" filterUnits="userSpaceOnUse" color-interpolation-filters="sRGB">
<feFlood flood-opacity="0" result="BackgroundImageFix"/>
<feGaussianBlur in="BackgroundImageFix" stdDeviation="29.0179"/>
<feComposite in2="SourceAlpha" operator="in" result="effect1_backgroundBlur_2756_623"/>
<feBlend mode="normal" in="SourceGraphic" in2="effect1_backgroundBlur_2756_623" result="shape"/>
<feColorMatrix in="SourceAlpha" type="matrix" values="0 0 0 0 0 0 0 0 0 0 0 0 0 0 0 0 0 0 127 0" result="hardAlpha"/>
<feMorphology radius="1.16071" operator="erode" in="SourceAlpha" result="effect2_innerShadow_2756_623"/>
<feOffset dx="2.32143" dy="4.64286"/>
<feGaussianBlur stdDeviation="9.28571"/>
<feComposite in2="hardAlpha" operator="arithmetic" k2="-1" k3="1"/>
<feColorMatrix type="matrix" values="0 0 0 0 0.968627 0 0 0 0 0.968627 0 0 0 0 0.968627 0 0 0 0.06 0"/>
<feBlend mode="normal" in2="shape" result="effect2_innerShadow_2756_623"/>
</filter>
<filter id="filter6_bdi_2756_623" x="155.536" y="157.857" width="78.9288" height="113.75" filterUnits="userSpaceOnUse" color-interpolation-filters="sRGB">
<feFlood flood-opacity="0" result="BackgroundImageFix"/>
<feGaussianBlur in="BackgroundImageFix" stdDeviation="3.48214"/>
<feComposite in2="SourceAlpha" operator="in" result="effect1_backgroundBlur_2756_623"/>
<feColorMatrix in="SourceAlpha" type="matrix" values="0 0 0 0 0 0 0 0 0 0 0 0 0 0 0 0 0 0 127 0" result="hardAlpha"/>
<feMorphology radius="18.5714" operator="erode" in="SourceAlpha" result="effect2_dropShadow_2756_623"/>
<feOffset dy="37.1429"/>
<feGaussianBlur stdDeviation="13.9286"/>
<feComposite in2="hardAlpha" operator="out"/>
<feColorMatrix type="matrix" values="0 0 0 0 0 0 0 0 0 0 0 0 0 0 0 0 0 0 0.4 0"/>
<feBlend mode="normal" in2="effect1_backgroundBlur_2756_623" result="effect2_dropShadow_2756_623"/>
<feBlend mode="normal" in="SourceGraphic" in2="effect2_dropShadow_2756_623" result="shape"/>
<feColorMatrix in="SourceAlpha" type="matrix" values="0 0 0 0 0 0 0 0 0 0 0 0 0 0 0 0 0 0 127 0" result="hardAlpha"/>
<feOffset/>
<feGaussianBlur stdDeviation="4.64286"/>
<feComposite in2="hardAlpha" operator="arithmetic" k2="-1" k3="1"/>
<feColorMatrix type="matrix" values="0 0 0 0 0.968627 0 0 0 0 0.968627 0 0 0 0 0.968627 0 0 0 0.25 0"/>
<feBlend mode="normal" in2="shape" result="effect3_innerShadow_2756_623"/>
</filter>
<radialGradient id="paint0_radial_2756_623" cx="0" cy="0" r="1" gradientUnits="userSpaceOnUse" gradientTransform="translate(194.696 194.554) scale(195)">
<stop/>
<stop offset="1" stop-opacity="0"/>
</radialGradient>
<linearGradient id="paint1_linear_2756_623" x1="195.179" y1="165" x2="195.179" y2="225.357" gradientUnits="userSpaceOnUse">
<stop/>
<stop offset="0.9" stop-opacity="0"/>
</linearGradient>
<clipPath id="clip0_2756_623">
<rect width="390" height="390" fill="white"/>
</clipPath>
<clipPath id="clip1_2756_623">
<rect width="67.3214" height="13.9286" fill="white" transform="translate(161.339 188.036)"/>
</clipPath>
<clipPath id="clip2_2756_623">
<rect width="67.3214" height="13.9286" fill="white" transform="translate(161.339 188.036)"/>
</clipPath>
<clipPath id="clip3_2756_623">
<rect width="13.9286" height="13.9286" fill="white" transform="translate(188.035 188.036)"/>
</clipPath>
</defs>
</svg>
