<svg width="24" height="24" viewBox="0 0 24 24" fill="none" xmlns="http://www.w3.org/2000/svg">
<rect width="24" height="24" fill="#1E1E1E"/>
<g id="List - To-do App">
<rect x="-41.5" y="-42.5" width="495" height="211" rx="4.5" stroke="#9747FF" stroke-dasharray="10 5"/>
<g id="Property 1=List - To-do App">
<g id="Container_List - To-do App">
<rect x="-22" y="-23" width="456" height="70" rx="20" fill="#F7F7F7" fill-opacity="0.02"/>
<g id="list-name">
<g id="Icon_Set - To-do App">
<rect x="-10" y="-10" width="44" height="44" rx="22" fill="#F7F7F7" fill-opacity="0.05"/>
<g id="Create" opacity="0.8">
<path id="Vector" d="M11.5 22H11.05C7.01949 22 5.00424 22 3.75212 20.6464C2.5 19.2927 2.5 17.1141 2.5 12.7568V12.2432C2.5 7.88594 2.5 5.70728 3.75212 4.35364C5.00424 3 7.01949 3 11.05 3H12.95C16.9805 3 18.9958 3 20.2479 4.35364C21.5 5.70728 21.5 7.88594 21.5 12.2432C21.5 12.6622 21.4997 13 21.4997 13" stroke="#F7F7F7" stroke-width="1.5" stroke-linecap="round" stroke-linejoin="round"/>
<path id="Vector_2" d="M18 2V4M6 2V4" stroke="#F7F7F7" stroke-width="1.5" stroke-linecap="round" stroke-linejoin="round"/>
<path id="Vector_3" d="M3 8H21" stroke="#F7F7F7" stroke-width="1.5" stroke-linecap="round" stroke-linejoin="round"/>
<g id="Group 1">
<path id="Vector_4" d="M17.5 22C19.433 22 21 20.433 21 18.5C21 16.567 19.433 15 17.5 15C15.567 15 14 16.567 14 18.5C14 20.433 15.567 22 17.5 22Z" stroke="#F7F7F7" stroke-width="1.5"/>
<path id="Vector_5" d="M17.5 17.1001V18.5001L18.2 19.2001" stroke="#F7F7F7" stroke-width="1.5" stroke-linecap="round" stroke-linejoin="round"/>
</g>
</g>
</g>
</g>
</g>
<g id="Overlay_List - To-do App">
<mask id="mask0_2724_279" style="mask-type:alpha" maskUnits="userSpaceOnUse" x="-22" y="-23" width="456" height="70">
<rect id="Mask" x="-22" y="-23" width="456" height="70" fill="url(#paint0_linear_2724_279)"/>
</mask>
<g mask="url(#mask0_2724_279)">
<rect id="Border" x="-21.5" y="-22.5" width="455" height="69" rx="19.5" stroke="white" stroke-opacity="0.05"/>
</g>
</g>
</g>
</g>
<defs>
<linearGradient id="paint0_linear_2724_279" x1="200.816" y1="-40.1628" x2="208.866" y2="64.3413" gradientUnits="userSpaceOnUse">
<stop/>
<stop offset="0.5" stop-opacity="0"/>
</linearGradient>
</defs>
</svg>
