<svg width="149" height="55" viewBox="0 0 149 55" fill="none" xmlns="http://www.w3.org/2000/svg">
<g clip-path="url(#clip0_2766_2199)">
<g filter="url(#filter0_bi_2766_2199)">
<rect width="149" height="55" rx="27.5" fill="#282828" fill-opacity="0.7"/>
</g>
<mask id="mask0_2766_2199" style="mask-type:alpha" maskUnits="userSpaceOnUse" x="0" y="0" width="150" height="55">
<rect width="149.13" height="55" fill="url(#paint0_linear_2766_2199)"/>
</mask>
<g mask="url(#mask0_2766_2199)">
<rect opacity="0.25" x="0.5" y="0.5" width="148.13" height="54" rx="27" stroke="#F7F7F7" stroke-opacity="0.25"/>
</g>
<path d="M36.6684 32.34C36.1458 32.34 35.6511 32.2746 35.1844 32.144C34.7178 32.0133 34.3024 31.8173 33.9384 31.556C33.5744 31.2853 33.2851 30.954 33.0704 30.562C32.8651 30.17 32.7531 29.7126 32.7344 29.19C32.7344 29.106 32.7624 29.036 32.8184 28.98C32.8744 28.9146 32.9491 28.882 33.0424 28.882H34.6384C34.7598 28.882 34.8531 28.9146 34.9184 28.98C34.9931 29.0453 35.0491 29.1386 35.0864 29.26C35.1331 29.5586 35.2311 29.8013 35.3804 29.988C35.5298 30.1746 35.7164 30.3146 35.9404 30.408C36.1738 30.492 36.4351 30.534 36.7244 30.534C37.2564 30.534 37.6624 30.3613 37.9424 30.016C38.2318 29.6706 38.3764 29.1806 38.3764 28.546V24.262H33.7144C33.6211 24.262 33.5418 24.2293 33.4764 24.164C33.4111 24.0986 33.3784 24.0193 33.3784 23.926V22.75C33.3784 22.6473 33.4111 22.5633 33.4764 22.498C33.5418 22.4326 33.6211 22.4 33.7144 22.4H40.3084C40.4111 22.4 40.4951 22.4326 40.5604 22.498C40.6258 22.5633 40.6584 22.6473 40.6584 22.75V28.602C40.6584 29.4046 40.4904 30.086 40.1544 30.646C39.8184 31.1966 39.3518 31.6166 38.7544 31.906C38.1571 32.1953 37.4618 32.34 36.6684 32.34ZM45.8263 32.34C45.0516 32.34 44.403 32.214 43.8803 31.962C43.3576 31.7006 42.9563 31.332 42.6763 30.856C42.4056 30.38 42.2563 29.8246 42.2283 29.19C42.219 29.0033 42.2143 28.7933 42.2143 28.56C42.2143 28.3173 42.219 28.1073 42.2283 27.93C42.2563 27.286 42.415 26.7306 42.7043 26.264C42.9936 25.788 43.3996 25.424 43.9223 25.172C44.445 24.9106 45.0796 24.78 45.8263 24.78C46.5636 24.78 47.1936 24.9106 47.7163 25.172C48.239 25.424 48.645 25.788 48.9343 26.264C49.2236 26.7306 49.3823 27.286 49.4103 27.93C49.429 28.1073 49.4383 28.3173 49.4383 28.56C49.4383 28.7933 49.429 29.0033 49.4103 29.19C49.3823 29.8246 49.2283 30.38 48.9483 30.856C48.6776 31.332 48.281 31.7006 47.7583 31.962C47.2356 32.214 46.5916 32.34 45.8263 32.34ZM45.8263 30.8C46.2836 30.8 46.629 30.66 46.8623 30.38C47.0956 30.0906 47.2216 29.6706 47.2403 29.12C47.2496 28.98 47.2543 28.7933 47.2543 28.56C47.2543 28.3266 47.2496 28.14 47.2403 28C47.2216 27.4586 47.0956 27.0433 46.8623 26.754C46.629 26.4646 46.2836 26.32 45.8263 26.32C45.369 26.32 45.019 26.4646 44.7763 26.754C44.543 27.0433 44.417 27.4586 44.3983 28C44.389 28.14 44.3843 28.3266 44.3843 28.56C44.3843 28.7933 44.389 28.98 44.3983 29.12C44.417 29.6706 44.543 30.0906 44.7763 30.38C45.019 30.66 45.369 30.8 45.8263 30.8ZM51.2385 32.2C51.1452 32.2 51.0658 32.1673 51.0005 32.102C50.9352 32.0366 50.9025 31.9526 50.9025 31.85V25.27C50.9025 25.1673 50.9352 25.0833 51.0005 25.018C51.0658 24.9526 51.1452 24.92 51.2385 24.92H52.6385C52.7412 24.92 52.8252 24.9526 52.8905 25.018C52.9558 25.0833 52.9885 25.1673 52.9885 25.27V31.85C52.9885 31.9526 52.9558 32.0366 52.8905 32.102C52.8252 32.1673 52.7412 32.2 52.6385 32.2H51.2385ZM51.1965 23.8C51.1032 23.8 51.0238 23.7673 50.9585 23.702C50.8932 23.6366 50.8605 23.5526 50.8605 23.45V22.33C50.8605 22.2273 50.8932 22.1433 50.9585 22.078C51.0238 22.0033 51.1032 21.966 51.1965 21.966H52.6665C52.7692 21.966 52.8532 22.0033 52.9185 22.078C52.9932 22.1433 53.0305 22.2273 53.0305 22.33V23.45C53.0305 23.5526 52.9932 23.6366 52.9185 23.702C52.8532 23.7673 52.7692 23.8 52.6665 23.8H51.1965ZM55.0803 32.2C54.987 32.2 54.9076 32.1673 54.8423 32.102C54.777 32.0366 54.7443 31.9526 54.7443 31.85V25.27C54.7443 25.1673 54.777 25.0833 54.8423 25.018C54.9076 24.9526 54.987 24.92 55.0803 24.92H56.4523C56.555 24.92 56.639 24.9526 56.7043 25.018C56.7696 25.0833 56.8023 25.1673 56.8023 25.27V25.816C57.045 25.5173 57.3576 25.27 57.7403 25.074C58.123 24.878 58.5896 24.78 59.1403 24.78C59.691 24.78 60.1716 24.906 60.5823 25.158C61.0023 25.4006 61.329 25.76 61.5623 26.236C61.805 26.7026 61.9263 27.272 61.9263 27.944V31.85C61.9263 31.9526 61.889 32.0366 61.8143 32.102C61.749 32.1673 61.6696 32.2 61.5763 32.2H60.0923C59.9896 32.2 59.9056 32.1673 59.8403 32.102C59.775 32.0366 59.7423 31.9526 59.7423 31.85V28.028C59.7423 27.5333 59.621 27.1506 59.3783 26.88C59.145 26.6 58.7996 26.46 58.3423 26.46C57.9036 26.46 57.5536 26.6 57.2923 26.88C57.031 27.1506 56.9003 27.5333 56.9003 28.028V31.85C56.9003 31.9526 56.8676 32.0366 56.8023 32.102C56.737 32.1673 56.6576 32.2 56.5643 32.2H55.0803ZM68.3811 32.2C68.2504 32.2 68.1477 32.1673 68.0731 32.102C68.0077 32.0366 67.9564 31.9526 67.9191 31.85L65.9171 25.368C65.8984 25.3213 65.8891 25.2746 65.8891 25.228C65.8891 25.144 65.9171 25.074 65.9731 25.018C66.0384 24.9526 66.1131 24.92 66.1971 24.92H67.4291C67.5504 24.92 67.6437 24.9526 67.7091 25.018C67.7744 25.0833 67.8164 25.144 67.8351 25.2L69.1091 29.526L70.4671 25.228C70.4857 25.1626 70.5277 25.0973 70.5931 25.032C70.6677 24.9573 70.7704 24.92 70.9011 24.92H71.6991C71.8297 24.92 71.9277 24.9573 71.9931 25.032C72.0677 25.0973 72.1144 25.1626 72.1331 25.228L73.4911 29.526L74.7651 25.2C74.7744 25.144 74.8117 25.0833 74.8771 25.018C74.9517 24.9526 75.0451 24.92 75.1571 24.92H76.3891C76.4731 24.92 76.5431 24.9526 76.5991 25.018C76.6644 25.074 76.6971 25.144 76.6971 25.228C76.6971 25.2746 76.6924 25.3213 76.6831 25.368L74.6671 31.85C74.6391 31.9526 74.5877 32.0366 74.5131 32.102C74.4477 32.1673 74.3497 32.2 74.2191 32.2H73.1411C73.0104 32.2 72.9077 32.1673 72.8331 32.102C72.7584 32.0366 72.7024 31.9526 72.6651 31.85L71.3071 27.706L69.9211 31.85C69.8931 31.9526 69.8417 32.0366 69.7671 32.102C69.6924 32.1673 69.5897 32.2 69.4591 32.2H68.3811ZM79.8961 32.34C79.4014 32.34 78.9581 32.2466 78.5661 32.06C78.1741 31.864 77.8614 31.6026 77.6281 31.276C77.3947 30.9493 77.2781 30.5853 77.2781 30.184C77.2781 29.5213 77.5441 28.9986 78.0761 28.616C78.6174 28.2333 79.3267 27.972 80.2041 27.832L82.0381 27.566V27.314C82.0381 26.95 81.9541 26.67 81.7861 26.474C81.6181 26.278 81.3241 26.18 80.9041 26.18C80.5961 26.18 80.3487 26.2406 80.1621 26.362C79.9754 26.4833 79.8307 26.642 79.7281 26.838C79.6534 26.9593 79.5461 27.02 79.4061 27.02H78.0761C77.9734 27.02 77.8941 26.992 77.8381 26.936C77.7821 26.8706 77.7587 26.796 77.7681 26.712C77.7681 26.5533 77.8287 26.3666 77.9501 26.152C78.0714 25.9373 78.2581 25.7273 78.5101 25.522C78.7621 25.3073 79.0841 25.13 79.4761 24.99C79.8681 24.85 80.3487 24.78 80.9181 24.78C81.5061 24.78 82.0101 24.85 82.4301 24.99C82.8501 25.13 83.1861 25.326 83.4381 25.578C83.6901 25.83 83.8767 26.124 83.9981 26.46C84.1194 26.7866 84.1801 27.1413 84.1801 27.524V31.85C84.1801 31.9526 84.1474 32.0366 84.0821 32.102C84.0167 32.1673 83.9327 32.2 83.8301 32.2H82.4581C82.3647 32.2 82.2854 32.1673 82.2201 32.102C82.1547 32.0366 82.1221 31.9526 82.1221 31.85V31.332C82.0007 31.5093 81.8374 31.6773 81.6321 31.836C81.4267 31.9853 81.1794 32.1066 80.8901 32.2C80.6101 32.2933 80.2787 32.34 79.8961 32.34ZM80.4561 30.884C80.7641 30.884 81.0394 30.8186 81.2821 30.688C81.5247 30.5573 81.7161 30.3566 81.8561 30.086C81.9961 29.8153 82.0661 29.4746 82.0661 29.064V28.826L80.7641 29.036C80.2601 29.12 79.8914 29.246 79.6581 29.414C79.4247 29.582 79.3081 29.7873 79.3081 30.03C79.3081 30.2073 79.3594 30.3613 79.4621 30.492C79.5741 30.6226 79.7187 30.7206 79.8961 30.786C80.0734 30.8513 80.2601 30.884 80.4561 30.884ZM86.2112 32.2C86.1178 32.2 86.0385 32.1673 85.9732 32.102C85.9078 32.0366 85.8752 31.9526 85.8752 31.85V25.27C85.8752 25.1673 85.9078 25.0833 85.9732 25.018C86.0385 24.9526 86.1178 24.92 86.2112 24.92H87.6112C87.7138 24.92 87.7978 24.9526 87.8632 25.018C87.9285 25.0833 87.9612 25.1673 87.9612 25.27V31.85C87.9612 31.9526 87.9285 32.0366 87.8632 32.102C87.7978 32.1673 87.7138 32.2 87.6112 32.2H86.2112ZM86.1692 23.8C86.0758 23.8 85.9965 23.7673 85.9312 23.702C85.8658 23.6366 85.8332 23.5526 85.8332 23.45V22.33C85.8332 22.2273 85.8658 22.1433 85.9312 22.078C85.9965 22.0033 86.0758 21.966 86.1692 21.966H87.6392C87.7418 21.966 87.8258 22.0033 87.8912 22.078C87.9658 22.1433 88.0032 22.2273 88.0032 22.33V23.45C88.0032 23.5526 87.9658 23.6366 87.8912 23.702C87.8258 23.7673 87.7418 23.8 87.6392 23.8H86.1692ZM93.217 32.2C92.6383 32.2 92.1436 32.1066 91.733 31.92C91.3223 31.724 91.0096 31.4253 90.795 31.024C90.5896 30.6226 90.487 30.1186 90.487 29.512V26.572H89.395C89.2923 26.572 89.2083 26.5393 89.143 26.474C89.0776 26.4086 89.045 26.3246 89.045 26.222V25.27C89.045 25.1673 89.0776 25.0833 89.143 25.018C89.2083 24.9526 89.2923 24.92 89.395 24.92H90.487V22.61C90.487 22.5073 90.5196 22.4233 90.585 22.358C90.6596 22.2926 90.7436 22.26 90.837 22.26H92.209C92.3116 22.26 92.3956 22.2926 92.461 22.358C92.5263 22.4233 92.559 22.5073 92.559 22.61V24.92H94.309C94.4023 24.92 94.4816 24.9526 94.547 25.018C94.6123 25.0833 94.645 25.1673 94.645 25.27V26.222C94.645 26.3246 94.6123 26.4086 94.547 26.474C94.4816 26.5393 94.4023 26.572 94.309 26.572H92.559V29.344C92.559 29.6986 92.6196 29.9786 92.741 30.184C92.8716 30.38 93.0956 30.478 93.413 30.478H94.435C94.5283 30.478 94.6076 30.5106 94.673 30.576C94.7383 30.6413 94.771 30.7206 94.771 30.814V31.85C94.771 31.9526 94.7383 32.0366 94.673 32.102C94.6076 32.1673 94.5283 32.2 94.435 32.2H93.217ZM96.3424 32.2C96.2397 32.2 96.1557 32.1673 96.0904 32.102C96.025 32.0366 95.9924 31.9526 95.9924 31.85V22.61C95.9924 22.5073 96.025 22.4233 96.0904 22.358C96.1557 22.2926 96.2397 22.26 96.3424 22.26H97.7424C97.8357 22.26 97.915 22.2926 97.9804 22.358C98.0457 22.4233 98.0784 22.5073 98.0784 22.61V31.85C98.0784 31.9526 98.0457 32.0366 97.9804 32.102C97.915 32.1673 97.8357 32.2 97.7424 32.2H96.3424ZM100.184 32.2C100.09 32.2 100.011 32.1673 99.9458 32.102C99.8805 32.0366 99.8478 31.9526 99.8478 31.85V25.27C99.8478 25.1673 99.8805 25.0833 99.9458 25.018C100.011 24.9526 100.09 24.92 100.184 24.92H101.584C101.686 24.92 101.77 24.9526 101.836 25.018C101.901 25.0833 101.934 25.1673 101.934 25.27V31.85C101.934 31.9526 101.901 32.0366 101.836 32.102C101.77 32.1673 101.686 32.2 101.584 32.2H100.184ZM100.142 23.8C100.048 23.8 99.9692 23.7673 99.9038 23.702C99.8385 23.6366 99.8058 23.5526 99.8058 23.45V22.33C99.8058 22.2273 99.8385 22.1433 99.9038 22.078C99.9692 22.0033 100.048 21.966 100.142 21.966H101.612C101.714 21.966 101.798 22.0033 101.864 22.078C101.938 22.1433 101.976 22.2273 101.976 22.33V23.45C101.976 23.5526 101.938 23.6366 101.864 23.702C101.798 23.7673 101.714 23.8 101.612 23.8H100.142ZM106.56 32.34C105.981 32.34 105.482 32.2746 105.062 32.144C104.651 32.004 104.315 31.836 104.054 31.64C103.802 31.444 103.61 31.248 103.48 31.052C103.358 30.8466 103.293 30.674 103.284 30.534C103.274 30.4313 103.307 30.3473 103.382 30.282C103.456 30.2166 103.531 30.184 103.606 30.184H104.964C104.992 30.184 105.02 30.1886 105.048 30.198C105.076 30.2073 105.104 30.2306 105.132 30.268C105.253 30.352 105.379 30.45 105.51 30.562C105.64 30.6646 105.79 30.7533 105.958 30.828C106.135 30.9026 106.354 30.94 106.616 30.94C106.924 30.94 107.185 30.8793 107.4 30.758C107.614 30.6273 107.722 30.4453 107.722 30.212C107.722 30.044 107.67 29.904 107.568 29.792C107.474 29.68 107.292 29.5773 107.022 29.484C106.751 29.3906 106.35 29.288 105.818 29.176C105.314 29.064 104.884 28.9146 104.53 28.728C104.175 28.5413 103.909 28.308 103.732 28.028C103.554 27.7386 103.466 27.3933 103.466 26.992C103.466 26.628 103.578 26.278 103.802 25.942C104.035 25.606 104.376 25.3306 104.824 25.116C105.272 24.892 105.832 24.78 106.504 24.78C107.017 24.78 107.465 24.8453 107.848 24.976C108.24 25.0973 108.566 25.256 108.828 25.452C109.089 25.6386 109.285 25.8346 109.416 26.04C109.556 26.236 109.63 26.4086 109.64 26.558C109.649 26.6513 109.621 26.7306 109.556 26.796C109.49 26.8613 109.416 26.894 109.332 26.894H108.086C108.039 26.894 107.997 26.8893 107.96 26.88C107.922 26.8613 107.89 26.838 107.862 26.81C107.75 26.7353 107.633 26.6513 107.512 26.558C107.4 26.4553 107.264 26.3666 107.106 26.292C106.947 26.2173 106.742 26.18 106.49 26.18C106.182 26.18 105.944 26.25 105.776 26.39C105.617 26.5206 105.538 26.6886 105.538 26.894C105.538 27.0246 105.58 27.146 105.664 27.258C105.748 27.37 105.92 27.4726 106.182 27.566C106.443 27.6593 106.84 27.7573 107.372 27.86C108.006 27.972 108.51 28.14 108.884 28.364C109.257 28.588 109.523 28.8493 109.682 29.148C109.85 29.4373 109.934 29.75 109.934 30.086C109.934 30.5246 109.803 30.9166 109.542 31.262C109.28 31.598 108.898 31.864 108.394 32.06C107.899 32.2466 107.288 32.34 106.56 32.34ZM114.75 32.2C114.171 32.2 113.677 32.1066 113.266 31.92C112.855 31.724 112.543 31.4253 112.328 31.024C112.123 30.6226 112.02 30.1186 112.02 29.512V26.572H110.928C110.825 26.572 110.741 26.5393 110.676 26.474C110.611 26.4086 110.578 26.3246 110.578 26.222V25.27C110.578 25.1673 110.611 25.0833 110.676 25.018C110.741 24.9526 110.825 24.92 110.928 24.92H112.02V22.61C112.02 22.5073 112.053 22.4233 112.118 22.358C112.193 22.2926 112.277 22.26 112.37 22.26H113.742C113.845 22.26 113.929 22.2926 113.994 22.358C114.059 22.4233 114.092 22.5073 114.092 22.61V24.92H115.842C115.935 24.92 116.015 24.9526 116.08 25.018C116.145 25.0833 116.178 25.1673 116.178 25.27V26.222C116.178 26.3246 116.145 26.4086 116.08 26.474C116.015 26.5393 115.935 26.572 115.842 26.572H114.092V29.344C114.092 29.6986 114.153 29.9786 114.274 30.184C114.405 30.38 114.629 30.478 114.946 30.478H115.968C116.061 30.478 116.141 30.5106 116.206 30.576C116.271 30.6413 116.304 30.7206 116.304 30.814V31.85C116.304 31.9526 116.271 32.0366 116.206 32.102C116.141 32.1673 116.061 32.2 115.968 32.2H114.75Z" fill="#F7F7F7" fill-opacity="0.7"/>
</g>
<defs>
<filter id="filter0_bi_2766_2199" x="-50" y="-50" width="249" height="155" filterUnits="userSpaceOnUse" color-interpolation-filters="sRGB">
<feFlood flood-opacity="0" result="BackgroundImageFix"/>
<feGaussianBlur in="BackgroundImageFix" stdDeviation="25"/>
<feComposite in2="SourceAlpha" operator="in" result="effect1_backgroundBlur_2766_2199"/>
<feBlend mode="normal" in="SourceGraphic" in2="effect1_backgroundBlur_2766_2199" result="shape"/>
<feColorMatrix in="SourceAlpha" type="matrix" values="0 0 0 0 0 0 0 0 0 0 0 0 0 0 0 0 0 0 127 0" result="hardAlpha"/>
<feOffset dx="2" dy="4"/>
<feGaussianBlur stdDeviation="8"/>
<feComposite in2="hardAlpha" operator="arithmetic" k2="-1" k3="1"/>
<feColorMatrix type="matrix" values="0 0 0 0 0.968627 0 0 0 0 0.968627 0 0 0 0 0.968627 0 0 0 0.06 0"/>
<feBlend mode="normal" in2="shape" result="effect2_innerShadow_2766_2199"/>
</filter>
<linearGradient id="paint0_linear_2766_2199" x1="67.9865" y1="-13.0195" x2="83.4221" y2="67.5832" gradientUnits="userSpaceOnUse">
<stop/>
<stop offset="0.5" stop-opacity="0"/>
</linearGradient>
<clipPath id="clip0_2766_2199">
<rect width="149" height="55" rx="27.5" fill="white"/>
</clipPath>
</defs>
</svg>
