<svg width="186" height="60" viewBox="0 0 186 60" fill="none" xmlns="http://www.w3.org/2000/svg">
<g filter="url(#filter0_bdi_2776_2787)">
<g clip-path="url(#clip0_2776_2787)">
<rect x="2" y="2" width="56" height="56" rx="28" fill="#F7F7F7" fill-opacity="0.03" shape-rendering="crispEdges"/>
<mask id="mask0_2776_2787" style="mask-type:alpha" maskUnits="userSpaceOnUse" x="2" y="2" width="56" height="56">
<rect x="2" y="2" width="56" height="56" fill="url(#paint0_linear_2776_2787)"/>
</mask>
<g mask="url(#mask0_2776_2787)">
<rect x="2.5" y="2.5" width="55" height="55" rx="27.5" stroke="white" stroke-opacity="0.1"/>
</g>
<path d="M29.4743 35.3058C32.4874 32.0819 35.3962 29.8949 39.0501 26.7978C40.1437 25.8707 40.3126 24.2458 39.4547 23.0945C38.5429 21.871 36.8103 21.6264 35.6376 22.5991C32.2907 25.3752 29.6868 28.0482 27.2168 30.9051C27.0872 31.055 27.0224 31.13 26.9551 31.1722C26.7845 31.2792 26.5714 31.2803 26.3997 31.1751C26.332 31.1336 26.2671 31.0601 26.1372 30.9131L24.821 29.4229C23.6201 28.0631 21.4661 28.2137 20.4634 29.7274C19.7617 30.7867 19.8657 32.1905 20.7157 33.1334L22.7796 35.4229C24.3233 37.1353 25.0952 37.9916 26.0218 37.9999C26.9485 38.0083 27.7904 37.1075 29.4743 35.3058Z" fill="url(#paint1_linear_2776_2787)"/>
</g>
</g>
<path d="M79.544 37.4341C76.408 37.4341 74.224 35.6421 74 33.2061H77.64C77.836 34.1021 78.648 34.4661 79.544 34.4661C80.384 34.4661 80.972 34.1021 80.972 33.4861C80.972 31.5821 74.336 32.8421 74.336 27.6621C74.336 25.3661 76.268 23.6861 79.208 23.6581C82.176 23.6301 84.164 25.1981 84.36 27.7461H80.776C80.636 27.1021 80.076 26.6261 79.208 26.6261C78.368 26.6261 77.864 27.1021 77.864 27.6621C77.864 29.4541 84.612 28.4461 84.612 33.4861C84.612 35.9221 82.204 37.4341 79.544 37.4341ZM86.1034 37.1261V23.9661H89.9674V37.1261H86.1034ZM88.0354 21.9781C86.7194 21.9781 85.6274 20.9701 85.6274 19.6821C85.6274 18.3661 86.7194 17.3301 88.0354 17.3301C89.3514 17.3301 90.4434 18.3661 90.4434 19.6821C90.4434 20.9701 89.3514 21.9781 88.0354 21.9781ZM92.018 29.7621C92.018 25.9821 94.006 23.6581 97.898 23.6581C100.502 23.6581 101.846 25.1701 102.378 26.0661H102.434C102.966 25.1701 104.31 23.6581 106.914 23.6581C110.806 23.6581 112.794 25.9821 112.794 29.7621V37.1261H108.93V30.0421C108.93 28.1941 108.202 27.0181 106.634 27.0181C105.066 27.0181 104.338 28.1941 104.338 30.0421V37.1261H100.474V30.0421C100.474 28.1941 99.746 27.0181 98.178 27.0181C96.61 27.0181 95.882 28.1941 95.882 30.0421V37.1261H92.018V29.7621ZM123.286 37.4341C121.354 37.4341 119.954 36.5661 119.17 35.1101V42.6701H115.306V23.9661H118.722L119.086 26.1501C119.87 24.6101 121.298 23.6581 123.286 23.6581C126.226 23.6581 129.25 25.9541 129.25 30.5461C129.25 35.1381 126.226 37.4341 123.286 37.4341ZM122.194 34.0741C124.07 34.0741 125.442 32.7301 125.442 30.5461C125.442 28.4461 124.098 27.0181 122.194 27.0181C120.794 27.0181 119.142 28.1661 119.142 30.5461C119.142 33.0941 120.738 34.0741 122.194 34.0741ZM131.148 37.1261V18.0301H135.012V37.1261H131.148ZM143.81 37.4341C139.638 37.4341 136.922 34.4941 136.922 30.5461C136.922 26.6261 139.722 23.6581 143.698 23.6581C147.674 23.6581 150.418 26.6261 150.418 30.5461L150.39 31.8061H140.506C140.926 33.4861 142.102 34.3261 143.726 34.3261C145.21 34.3261 145.994 33.9621 146.526 33.1501H150.026C149.186 36.2021 146.414 37.4341 143.81 37.4341ZM140.478 29.2301H146.89C146.638 27.8021 145.294 26.7941 143.698 26.7941C142.018 26.7941 140.842 27.7741 140.478 29.2301Z" fill="#F8F8F8" fill-opacity="0.7"/>
<path d="M152.418 37.1261V18.0301H156.282V37.1261H152.418ZM158.892 37.1261V23.9661H162.756V37.1261H158.892ZM160.824 21.9781C159.508 21.9781 158.416 20.9701 158.416 19.6821C158.416 18.3661 159.508 17.3301 160.824 17.3301C162.14 17.3301 163.232 18.3661 163.232 19.6821C163.232 20.9701 162.14 21.9781 160.824 21.9781ZM169.903 37.4341C166.767 37.4341 164.583 35.6421 164.359 33.2061H167.999C168.195 34.1021 169.007 34.4661 169.903 34.4661C170.743 34.4661 171.331 34.1021 171.331 33.4861C171.331 31.5821 164.695 32.8421 164.695 27.6621C164.695 25.3661 166.627 23.6861 169.567 23.6581C172.535 23.6301 174.523 25.1981 174.719 27.7461H171.135C170.995 27.1021 170.435 26.6261 169.567 26.6261C168.727 26.6261 168.223 27.1021 168.223 27.6621C168.223 29.4541 174.971 28.4461 174.971 33.4861C174.971 35.9221 172.563 37.4341 169.903 37.4341ZM182.735 37.3501C179.655 37.3501 177.611 35.5021 177.611 31.9461V26.9901H175.203V23.9661H177.611V19.4861H181.475V23.9661H185.339V26.9901H181.475V31.4141C181.475 33.0661 182.035 33.9341 183.799 33.9341L184.947 33.9061V37.0141C184.163 37.2381 183.519 37.3501 182.735 37.3501Z" fill="#F8F8F8" fill-opacity="0.95"/>
<defs>
<filter id="filter0_bdi_2776_2787" x="-48" y="-48" width="156" height="156" filterUnits="userSpaceOnUse" color-interpolation-filters="sRGB">
<feFlood flood-opacity="0" result="BackgroundImageFix"/>
<feGaussianBlur in="BackgroundImageFix" stdDeviation="25"/>
<feComposite in2="SourceAlpha" operator="in" result="effect1_backgroundBlur_2776_2787"/>
<feColorMatrix in="SourceAlpha" type="matrix" values="0 0 0 0 0 0 0 0 0 0 0 0 0 0 0 0 0 0 127 0" result="hardAlpha"/>
<feMorphology radius="2" operator="dilate" in="SourceAlpha" result="effect2_dropShadow_2776_2787"/>
<feOffset/>
<feComposite in2="hardAlpha" operator="out"/>
<feColorMatrix type="matrix" values="0 0 0 0 0.0705882 0 0 0 0 0.0705882 0 0 0 0 0.0705882 0 0 0 0.6 0"/>
<feBlend mode="normal" in2="effect1_backgroundBlur_2776_2787" result="effect2_dropShadow_2776_2787"/>
<feBlend mode="normal" in="SourceGraphic" in2="effect2_dropShadow_2776_2787" result="shape"/>
<feColorMatrix in="SourceAlpha" type="matrix" values="0 0 0 0 0 0 0 0 0 0 0 0 0 0 0 0 0 0 127 0" result="hardAlpha"/>
<feOffset dx="2" dy="4"/>
<feGaussianBlur stdDeviation="8"/>
<feComposite in2="hardAlpha" operator="arithmetic" k2="-1" k3="1"/>
<feColorMatrix type="matrix" values="0 0 0 0 0.968627 0 0 0 0 0.968627 0 0 0 0 0.968627 0 0 0 0.06 0"/>
<feBlend mode="normal" in2="shape" result="effect3_innerShadow_2776_2787"/>
</filter>
<linearGradient id="paint0_linear_2776_2787" x1="25.5987" y1="-1.31659" x2="34.4013" y2="61.3166" gradientUnits="userSpaceOnUse">
<stop/>
<stop offset="0.5" stop-opacity="0"/>
</linearGradient>
<linearGradient id="paint1_linear_2776_2787" x1="30" y1="22" x2="30" y2="37.9999" gradientUnits="userSpaceOnUse">
<stop stop-color="#F8F8F8" stop-opacity="0.9"/>
<stop offset="1" stop-color="#F8F8F8" stop-opacity="0.3"/>
</linearGradient>
<clipPath id="clip0_2776_2787">
<rect x="2" y="2" width="56" height="56" rx="28" fill="white"/>
</clipPath>
</defs>
</svg>
