<svg width="60" height="60" viewBox="0 0 60 60" fill="none" xmlns="http://www.w3.org/2000/svg">
<g filter="url(#filter0_bdi_2752_179)">
<g clip-path="url(#clip0_2752_179)">
<rect x="2" y="2" width="56" height="56" rx="28" fill="#F7F7F7" fill-opacity="0.03" shape-rendering="crispEdges"/>
<mask id="mask0_2752_179" style="mask-type:alpha" maskUnits="userSpaceOnUse" x="2" y="2" width="56" height="56">
<rect x="2" y="2" width="56" height="56" fill="url(#paint0_linear_2752_179)"/>
</mask>
<g mask="url(#mask0_2752_179)">
<rect x="2.5" y="2.5" width="55" height="55" rx="27.5" stroke="white" stroke-opacity="0.1"/>
</g>
<path d="M29.4743 35.3058C32.4874 32.0819 35.3962 29.8949 39.0501 26.7978C40.1437 25.8707 40.3126 24.2458 39.4547 23.0945C38.5429 21.871 36.8103 21.6264 35.6376 22.5991C32.2907 25.3752 29.6868 28.0482 27.2168 30.9051C27.0872 31.055 27.0224 31.13 26.9551 31.1722C26.7845 31.2792 26.5714 31.2803 26.3997 31.1751C26.332 31.1336 26.2671 31.0601 26.1372 30.9131L24.821 29.4229C23.6201 28.0631 21.4661 28.2137 20.4634 29.7274C19.7617 30.7867 19.8657 32.1905 20.7157 33.1334L22.7796 35.4229C24.3233 37.1353 25.0952 37.9916 26.0218 37.9999C26.9485 38.0083 27.7904 37.1075 29.4743 35.3058Z" fill="url(#paint1_linear_2752_179)"/>
</g>
</g>
<defs>
<filter id="filter0_bdi_2752_179" x="-48" y="-48" width="156" height="156" filterUnits="userSpaceOnUse" color-interpolation-filters="sRGB">
<feFlood flood-opacity="0" result="BackgroundImageFix"/>
<feGaussianBlur in="BackgroundImageFix" stdDeviation="25"/>
<feComposite in2="SourceAlpha" operator="in" result="effect1_backgroundBlur_2752_179"/>
<feColorMatrix in="SourceAlpha" type="matrix" values="0 0 0 0 0 0 0 0 0 0 0 0 0 0 0 0 0 0 127 0" result="hardAlpha"/>
<feMorphology radius="2" operator="dilate" in="SourceAlpha" result="effect2_dropShadow_2752_179"/>
<feOffset/>
<feComposite in2="hardAlpha" operator="out"/>
<feColorMatrix type="matrix" values="0 0 0 0 0.0705882 0 0 0 0 0.0705882 0 0 0 0 0.0705882 0 0 0 0.6 0"/>
<feBlend mode="normal" in2="effect1_backgroundBlur_2752_179" result="effect2_dropShadow_2752_179"/>
<feBlend mode="normal" in="SourceGraphic" in2="effect2_dropShadow_2752_179" result="shape"/>
<feColorMatrix in="SourceAlpha" type="matrix" values="0 0 0 0 0 0 0 0 0 0 0 0 0 0 0 0 0 0 127 0" result="hardAlpha"/>
<feOffset dx="2" dy="4"/>
<feGaussianBlur stdDeviation="8"/>
<feComposite in2="hardAlpha" operator="arithmetic" k2="-1" k3="1"/>
<feColorMatrix type="matrix" values="0 0 0 0 0.968627 0 0 0 0 0.968627 0 0 0 0 0.968627 0 0 0 0.06 0"/>
<feBlend mode="normal" in2="shape" result="effect3_innerShadow_2752_179"/>
</filter>
<linearGradient id="paint0_linear_2752_179" x1="25.5987" y1="-1.31659" x2="34.4013" y2="61.3166" gradientUnits="userSpaceOnUse">
<stop/>
<stop offset="0.5" stop-opacity="0"/>
</linearGradient>
<linearGradient id="paint1_linear_2752_179" x1="30" y1="22" x2="30" y2="37.9999" gradientUnits="userSpaceOnUse">
<stop stop-color="#F8F8F8" stop-opacity="0.9"/>
<stop offset="1" stop-color="#F8F8F8" stop-opacity="0.3"/>
</linearGradient>
<clipPath id="clip0_2752_179">
<rect x="2" y="2" width="56" height="56" rx="28" fill="white"/>
</clipPath>
</defs>
</svg>
