<svg width="16" height="16" viewBox="0 0 16 16" fill="none" xmlns="http://www.w3.org/2000/svg">
<path d="M0.847431 6.73534C0.140201 4.09591 -0.213414 2.77619 0.136451 1.86477C0.441613 1.06978 1.06978 0.441614 1.86477 0.136451C2.77619 -0.213415 4.0959 0.140202 6.73532 0.847434L10.7568 1.92499C13.3962 2.63223 14.716 2.98585 15.3303 3.74456C15.8662 4.40633 16.0962 5.26441 15.963 6.10548C15.8103 7.06973 14.8442 8.03583 12.912 9.968L9.96802 12.912C8.03581 14.8442 7.06971 15.8103 6.10546 15.963C5.2644 16.0962 4.40632 15.8662 3.74454 15.3304C2.98584 14.716 2.63222 13.3963 1.92499 10.7568L0.847431 6.73534Z" fill="url(#paint0_linear_2728_6371)"/>
<defs>
<linearGradient id="paint0_linear_2728_6371" x1="-1.30768" y1="-1.30769" x2="15.6892" y2="15.6892" gradientUnits="userSpaceOnUse">
<stop stop-color="#F8F8F8" stop-opacity="0.9"/>
<stop offset="1" stop-color="#F8F8F8" stop-opacity="0.3"/>
</linearGradient>
</defs>
</svg>
